<?xml version="1.0" encoding="utf-8" standalone="no"?>
<!DOCTYPE svg PUBLIC "-//W3C//DTD SVG 1.1//EN"
  "http://www.w3.org/Graphics/SVG/1.1/DTD/svg11.dtd">
<!-- Created with matplotlib (https://matplotlib.org/) -->
<svg height="288pt" version="1.1" viewBox="0 0 432 288" width="432pt" xmlns="http://www.w3.org/2000/svg" xmlns:xlink="http://www.w3.org/1999/xlink">
 <metadata>
  <rdf:RDF xmlns:cc="http://creativecommons.org/ns#" xmlns:dc="http://purl.org/dc/elements/1.1/" xmlns:rdf="http://www.w3.org/1999/02/22-rdf-syntax-ns#">
   <cc:Work>
    <dc:type rdf:resource="http://purl.org/dc/dcmitype/StillImage"/>
    <dc:date>2021-03-23T12:47:42.144439</dc:date>
    <dc:format>image/svg+xml</dc:format>
    <dc:creator>
     <cc:Agent>
      <dc:title>Matplotlib v3.3.2, https://matplotlib.org/</dc:title>
     </cc:Agent>
    </dc:creator>
   </cc:Work>
  </rdf:RDF>
 </metadata>
 <defs>
  <style type="text/css">*{stroke-linecap:butt;stroke-linejoin:round;}</style>
 </defs>
 <g id="figure_1">
  <g id="patch_1">
   <path d="M 0 288 
L 432 288 
L 432 0 
L 0 0 
z
" style="fill:none;"/>
  </g>
  <g id="axes_1">
   <g id="patch_2">
    <path d="M 54 252 
L 388.8 252 
L 388.8 34.56 
L 54 34.56 
z
" style="fill:#ffffff;"/>
   </g>
   <g id="PathCollection_1">
    <defs>
     <path d="M 0 2.5 
C 0.663008 2.5 1.29895 2.236584 1.767767 1.767767 
C 2.236584 1.29895 2.5 0.663008 2.5 0 
C 2.5 -0.663008 2.236584 -1.29895 1.767767 -1.767767 
C 1.29895 -2.236584 0.663008 -2.5 0 -2.5 
C -0.663008 -2.5 -1.29895 -2.236584 -1.767767 -1.767767 
C -2.236584 -1.29895 -2.5 -0.663008 -2.5 0 
C -2.5 0.663008 -2.236584 1.29895 -1.767767 1.767767 
C -1.29895 2.236584 -0.663008 2.5 0 2.5 
z
" id="m6fd4c9ff3a" style="stroke:#000000;"/>
    </defs>
    <g clip-path="url(#p3ff78b2fb3)">
     <use style="fill:#1f77b4;stroke:#000000;" x="89.933689" xlink:href="#m6fd4c9ff3a" y="239.901543"/>
     <use style="fill:#1f77b4;stroke:#000000;" x="355.22565" xlink:href="#m6fd4c9ff3a" y="218.823835"/>
     <use style="fill:#1f77b4;stroke:#000000;" x="222.532724" xlink:href="#m6fd4c9ff3a" y="182.426952"/>
     <use style="fill:#1f77b4;stroke:#000000;" x="215.791701" xlink:href="#m6fd4c9ff3a" y="180.359786"/>
     <use style="fill:#1f77b4;stroke:#000000;" x="231.95917" xlink:href="#m6fd4c9ff3a" y="167.661482"/>
     <use style="fill:#1f77b4;stroke:#000000;" x="345.389359" xlink:href="#m6fd4c9ff3a" y="44.443636"/>
     <use style="fill:#1f77b4;stroke:#000000;" x="349.030438" xlink:href="#m6fd4c9ff3a" y="223.068908"/>
     <use style="fill:#1f77b4;stroke:#000000;" x="301.449405" xlink:href="#m6fd4c9ff3a" y="202.840214"/>
     <use style="fill:#1f77b4;stroke:#000000;" x="348.136336" xlink:href="#m6fd4c9ff3a" y="225.874347"/>
     <use style="fill:#1f77b4;stroke:#000000;" x="309.145305" xlink:href="#m6fd4c9ff3a" y="218.343957"/>
     <use style="fill:#1f77b4;stroke:#000000;" x="320.395797" xlink:href="#m6fd4c9ff3a" y="219.746677"/>
     <use style="fill:#1f77b4;stroke:#000000;" x="87.552533" xlink:href="#m6fd4c9ff3a" y="218.67618"/>
     <use style="fill:#1f77b4;stroke:#000000;" x="225.351386" xlink:href="#m6fd4c9ff3a" y="213.655921"/>
     <use style="fill:#1f77b4;stroke:#000000;" x="259.42544" xlink:href="#m6fd4c9ff3a" y="227.092498"/>
     <use style="fill:#1f77b4;stroke:#000000;" x="260.950672" xlink:href="#m6fd4c9ff3a" y="229.344232"/>
     <use style="fill:#1f77b4;stroke:#000000;" x="293.994658" xlink:href="#m6fd4c9ff3a" y="218.602353"/>
     <use style="fill:#1f77b4;stroke:#000000;" x="92.026939" xlink:href="#m6fd4c9ff3a" y="209.743071"/>
     <use style="fill:#1f77b4;stroke:#000000;" x="76.788635" xlink:href="#m6fd4c9ff3a" y="175.561008"/>
     <use style="fill:#1f77b4;stroke:#000000;" x="109.159026" xlink:href="#m6fd4c9ff3a" y="187.447212"/>
     <use style="fill:#1f77b4;stroke:#000000;" x="336.693388" xlink:href="#m6fd4c9ff3a" y="217.421115"/>
     <use style="fill:#1f77b4;stroke:#000000;" x="196.393777" xlink:href="#m6fd4c9ff3a" y="227.092498"/>
     <use style="fill:#1f77b4;stroke:#000000;" x="344.905102" xlink:href="#m6fd4c9ff3a" y="95.384507"/>
     <use style="fill:#1f77b4;stroke:#000000;" x="339.029741" xlink:href="#m6fd4c9ff3a" y="215.280122"/>
     <use style="fill:#1f77b4;stroke:#000000;" x="291.123792" xlink:href="#m6fd4c9ff3a" y="201.658976"/>
     <use style="fill:#1f77b4;stroke:#000000;" x="232.856778" xlink:href="#m6fd4c9ff3a" y="205.719481"/>
     <use style="fill:#1f77b4;stroke:#000000;" x="223.315015" xlink:href="#m6fd4c9ff3a" y="180.359786"/>
     <use style="fill:#1f77b4;stroke:#000000;" x="155.67376" xlink:href="#m6fd4c9ff3a" y="211.588755"/>
     <use style="fill:#1f77b4;stroke:#000000;" x="217.045781" xlink:href="#m6fd4c9ff3a" y="207.196028"/>
     <use style="fill:#1f77b4;stroke:#000000;" x="80.815406" xlink:href="#m6fd4c9ff3a" y="165.668144"/>
     <use style="fill:#1f77b4;stroke:#000000;" x="352.420234" xlink:href="#m6fd4c9ff3a" y="208.598747"/>
     <use style="fill:#1f77b4;stroke:#000000;" x="121.511659" xlink:href="#m6fd4c9ff3a" y="217.531856"/>
     <use style="fill:#1f77b4;stroke:#000000;" x="339.43647" xlink:href="#m6fd4c9ff3a" y="171.869641"/>
     <use style="fill:#1f77b4;stroke:#000000;" x="306.175874" xlink:href="#m6fd4c9ff3a" y="231.411398"/>
     <use style="fill:#1f77b4;stroke:#000000;" x="206.632901" xlink:href="#m6fd4c9ff3a" y="221.998411"/>
     <use style="fill:#1f77b4;stroke:#000000;" x="234.81679" xlink:href="#m6fd4c9ff3a" y="221.88767"/>
     <use style="fill:#1f77b4;stroke:#000000;" x="319.681295" xlink:href="#m6fd4c9ff3a" y="201.437494"/>
     <use style="fill:#1f77b4;stroke:#000000;" x="91.811887" xlink:href="#m6fd4c9ff3a" y="179.363117"/>
     <use style="fill:#1f77b4;stroke:#000000;" x="263.253521" xlink:href="#m6fd4c9ff3a" y="197.967609"/>
     <use style="fill:#1f77b4;stroke:#000000;" x="273.130329" xlink:href="#m6fd4c9ff3a" y="202.840214"/>
     <use style="fill:#1f77b4;stroke:#000000;" x="126.885621" xlink:href="#m6fd4c9ff3a" y="192.172162"/>
     <use style="fill:#1f77b4;stroke:#000000;" x="229.134275" xlink:href="#m6fd4c9ff3a" y="214.394194"/>
     <use style="fill:#1f77b4;stroke:#000000;" x="313.871385" xlink:href="#m6fd4c9ff3a" y="225.283728"/>
     <use style="fill:#1f77b4;stroke:#000000;" x="243.920658" xlink:href="#m6fd4c9ff3a" y="214.394194"/>
     <use style="fill:#1f77b4;stroke:#000000;" x="145.716696" xlink:href="#m6fd4c9ff3a" y="218.602353"/>
     <use style="fill:#1f77b4;stroke:#000000;" x="336.963372" xlink:href="#m6fd4c9ff3a" y="184.641772"/>
     <use style="fill:#1f77b4;stroke:#000000;" x="346.591234" xlink:href="#m6fd4c9ff3a" y="205.867135"/>
     <use style="fill:#1f77b4;stroke:#000000;" x="187.026938" xlink:href="#m6fd4c9ff3a" y="193.907105"/>
     <use style="fill:#1f77b4;stroke:#000000;" x="370.719912" xlink:href="#m6fd4c9ff3a" y="224.80385"/>
     <use style="fill:#1f77b4;stroke:#000000;" x="74.956018" xlink:href="#m6fd4c9ff3a" y="236.099435"/>
     <use style="fill:#1f77b4;stroke:#000000;" x="325.395367" xlink:href="#m6fd4c9ff3a" y="197.635386"/>
     <use style="fill:#1f77b4;stroke:#000000;" x="170.630782" xlink:href="#m6fd4c9ff3a" y="214.394194"/>
     <use style="fill:#1f77b4;stroke:#000000;" x="279.433457" xlink:href="#m6fd4c9ff3a" y="236.763881"/>
     <use style="fill:#1f77b4;stroke:#000000;" x="329.101897" xlink:href="#m6fd4c9ff3a" y="229.676455"/>
     <use style="fill:#1f77b4;stroke:#000000;" x="215.856372" xlink:href="#m6fd4c9ff3a" y="180.359786"/>
     <use style="fill:#1f77b4;stroke:#000000;" x="246.205586" xlink:href="#m6fd4c9ff3a" y="227.092498"/>
     <use style="fill:#1f77b4;stroke:#000000;" x="200.272894" xlink:href="#m6fd4c9ff3a" y="224.619282"/>
     <use style="fill:#1f77b4;stroke:#000000;" x="224.031465" xlink:href="#m6fd4c9ff3a" y="188.849931"/>
     <use style="fill:#1f77b4;stroke:#000000;" x="78.323998" xlink:href="#m6fd4c9ff3a" y="227.092498"/>
     <use style="fill:#1f77b4;stroke:#000000;" x="146.509895" xlink:href="#m6fd4c9ff3a" y="213.139129"/>
     <use style="fill:#1f77b4;stroke:#000000;" x="162.717102" xlink:href="#m6fd4c9ff3a" y="222.958167"/>
     <use style="fill:#1f77b4;stroke:#000000;" x="79.053694" xlink:href="#m6fd4c9ff3a" y="176.48385"/>
     <use style="fill:#1f77b4;stroke:#000000;" x="172.253411" xlink:href="#m6fd4c9ff3a" y="224.471627"/>
     <use style="fill:#1f77b4;stroke:#000000;" x="111.822632" xlink:href="#m6fd4c9ff3a" y="226.61262"/>
     <use style="fill:#1f77b4;stroke:#000000;" x="228.210564" xlink:href="#m6fd4c9ff3a" y="221.075569"/>
     <use style="fill:#1f77b4;stroke:#000000;" x="260.5942" xlink:href="#m6fd4c9ff3a" y="200.330084"/>
     <use style="fill:#1f77b4;stroke:#000000;" x="99.942567" xlink:href="#m6fd4c9ff3a" y="202.249595"/>
     <use style="fill:#1f77b4;stroke:#000000;" x="237.936602" xlink:href="#m6fd4c9ff3a" y="222.884339"/>
     <use style="fill:#1f77b4;stroke:#000000;" x="105.840524" xlink:href="#m6fd4c9ff3a" y="209.410848"/>
     <use style="fill:#1f77b4;stroke:#000000;" x="196.11756" xlink:href="#m6fd4c9ff3a" y="210.075294"/>
     <use style="fill:#1f77b4;stroke:#000000;" x="269.489639" xlink:href="#m6fd4c9ff3a" y="193.242659"/>
     <use style="fill:#1f77b4;stroke:#000000;" x="339.562696" xlink:href="#m6fd4c9ff3a" y="212.659251"/>
     <use style="fill:#1f77b4;stroke:#000000;" x="102.628769" xlink:href="#m6fd4c9ff3a" y="207.602078"/>
     <use style="fill:#1f77b4;stroke:#000000;" x="214.805656" xlink:href="#m6fd4c9ff3a" y="197.37699"/>
     <use style="fill:#1f77b4;stroke:#000000;" x="344.030479" xlink:href="#m6fd4c9ff3a" y="195.56822"/>
     <use style="fill:#1f77b4;stroke:#000000;" x="266.977583" xlink:href="#m6fd4c9ff3a" y="193.168831"/>
     <use style="fill:#1f77b4;stroke:#000000;" x="218.908397" xlink:href="#m6fd4c9ff3a" y="184.641772"/>
     <use style="fill:#1f77b4;stroke:#000000;" x="107.430039" xlink:href="#m6fd4c9ff3a" y="240.049198"/>
     <use style="fill:#1f77b4;stroke:#000000;" x="264.425398" xlink:href="#m6fd4c9ff3a" y="205.867135"/>
     <use style="fill:#1f77b4;stroke:#000000;" x="220.986064" xlink:href="#m6fd4c9ff3a" y="199.591811"/>
     <use style="fill:#1f77b4;stroke:#000000;" x="237.554028" xlink:href="#m6fd4c9ff3a" y="202.840214"/>
     <use style="fill:#1f77b4;stroke:#000000;" x="277.569283" xlink:href="#m6fd4c9ff3a" y="177.88657"/>
     <use style="fill:#1f77b4;stroke:#000000;" x="205.727112" xlink:href="#m6fd4c9ff3a" y="210.075294"/>
     <use style="fill:#1f77b4;stroke:#000000;" x="122.485626" xlink:href="#m6fd4c9ff3a" y="204.390588"/>
     <use style="fill:#1f77b4;stroke:#000000;" x="125.518561" xlink:href="#m6fd4c9ff3a" y="176.151627"/>
     <use style="fill:#1f77b4;stroke:#000000;" x="108.460496" xlink:href="#m6fd4c9ff3a" y="199.924034"/>
     <use style="fill:#1f77b4;stroke:#000000;" x="271.437574" xlink:href="#m6fd4c9ff3a" y="236.763881"/>
     <use style="fill:#1f77b4;stroke:#000000;" x="311.279073" xlink:href="#m6fd4c9ff3a" y="142.117219"/>
     <use style="fill:#1f77b4;stroke:#000000;" x="312.538997" xlink:href="#m6fd4c9ff3a" y="220.263468"/>
     <use style="fill:#1f77b4;stroke:#000000;" x="264.146454" xlink:href="#m6fd4c9ff3a" y="231.411398"/>
     <use style="fill:#1f77b4;stroke:#000000;" x="263.709338" xlink:href="#m6fd4c9ff3a" y="235.767212"/>
     <use style="fill:#1f77b4;stroke:#000000;" x="323.182513" xlink:href="#m6fd4c9ff3a" y="184.641772"/>
     <use style="fill:#1f77b4;stroke:#000000;" x="154.854458" xlink:href="#m6fd4c9ff3a" y="214.394194"/>
     <use style="fill:#1f77b4;stroke:#000000;" x="259.488553" xlink:href="#m6fd4c9ff3a" y="235.619557"/>
     <use style="fill:#1f77b4;stroke:#000000;" x="324.477889" xlink:href="#m6fd4c9ff3a" y="197.37699"/>
     <use style="fill:#1f77b4;stroke:#000000;" x="221.505773" xlink:href="#m6fd4c9ff3a" y="214.394194"/>
     <use style="fill:#1f77b4;stroke:#000000;" x="233.455184" xlink:href="#m6fd4c9ff3a" y="210.075294"/>
     <use style="fill:#1f77b4;stroke:#000000;" x="262.492268" xlink:href="#m6fd4c9ff3a" y="240.565989"/>
     <use style="fill:#1f77b4;stroke:#000000;" x="263.476365" xlink:href="#m6fd4c9ff3a" y="186.302888"/>
     <use style="fill:#1f77b4;stroke:#000000;" x="312.172786" xlink:href="#m6fd4c9ff3a" y="205.867135"/>
     <use style="fill:#1f77b4;stroke:#000000;" x="213.583912" xlink:href="#m6fd4c9ff3a" y="198.521314"/>
     <use style="fill:#1f77b4;stroke:#000000;" x="124.952881" xlink:href="#m6fd4c9ff3a" y="217.753338"/>
     <use style="fill:#1f77b4;stroke:#000000;" x="183.332485" xlink:href="#m6fd4c9ff3a" y="211.071963"/>
     <use style="fill:#1f77b4;stroke:#000000;" x="319.177169" xlink:href="#m6fd4c9ff3a" y="219.414454"/>
     <use style="fill:#1f77b4;stroke:#000000;" x="373.581818" xlink:href="#m6fd4c9ff3a" y="201.658976"/>
     <use style="fill:#1f77b4;stroke:#000000;" x="171.856812" xlink:href="#m6fd4c9ff3a" y="223.142735"/>
     <use style="fill:#1f77b4;stroke:#000000;" x="253.776429" xlink:href="#m6fd4c9ff3a" y="224.471627"/>
     <use style="fill:#1f77b4;stroke:#000000;" x="324.810986" xlink:href="#m6fd4c9ff3a" y="191.913766"/>
     <use style="fill:#1f77b4;stroke:#000000;" x="230.029156" xlink:href="#m6fd4c9ff3a" y="231.411398"/>
     <use style="fill:#1f77b4;stroke:#000000;" x="276.762448" xlink:href="#m6fd4c9ff3a" y="201.658976"/>
     <use style="fill:#1f77b4;stroke:#000000;" x="254.555213" xlink:href="#m6fd4c9ff3a" y="150.644278"/>
     <use style="fill:#1f77b4;stroke:#000000;" x="229.062591" xlink:href="#m6fd4c9ff3a" y="230.414729"/>
     <use style="fill:#1f77b4;stroke:#000000;" x="186.558655" xlink:href="#m6fd4c9ff3a" y="205.867135"/>
     <use style="fill:#1f77b4;stroke:#000000;" x="213.405091" xlink:href="#m6fd4c9ff3a" y="222.884339"/>
     <use style="fill:#1f77b4;stroke:#000000;" x="185.144064" xlink:href="#m6fd4c9ff3a" y="222.552116"/>
     <use style="fill:#1f77b4;stroke:#000000;" x="208.111773" xlink:href="#m6fd4c9ff3a" y="222.884339"/>
     <use style="fill:#1f77b4;stroke:#000000;" x="86.260273" xlink:href="#m6fd4c9ff3a" y="222.404461"/>
     <use style="fill:#1f77b4;stroke:#000000;" x="279.360604" xlink:href="#m6fd4c9ff3a" y="235.287334"/>
     <use style="fill:#1f77b4;stroke:#000000;" x="126.82991" xlink:href="#m6fd4c9ff3a" y="208.008128"/>
     <use style="fill:#1f77b4;stroke:#000000;" x="163.084483" xlink:href="#m6fd4c9ff3a" y="230.156333"/>
     <use style="fill:#1f77b4;stroke:#000000;" x="267.671437" xlink:href="#m6fd4c9ff3a" y="229.344232"/>
     <use style="fill:#1f77b4;stroke:#000000;" x="217.978063" xlink:href="#m6fd4c9ff3a" y="188.849931"/>
     <use style="fill:#1f77b4;stroke:#000000;" x="93.136483" xlink:href="#m6fd4c9ff3a" y="218.602353"/>
     <use style="fill:#1f77b4;stroke:#000000;" x="141.64785" xlink:href="#m6fd4c9ff3a" y="199.111933"/>
     <use style="fill:#1f77b4;stroke:#000000;" x="303.162419" xlink:href="#m6fd4c9ff3a" y="189.182154"/>
     <use style="fill:#1f77b4;stroke:#000000;" x="254.941683" xlink:href="#m6fd4c9ff3a" y="186.967334"/>
     <use style="fill:#1f77b4;stroke:#000000;" x="339.160642" xlink:href="#m6fd4c9ff3a" y="223.068908"/>
     <use style="fill:#1f77b4;stroke:#000000;" x="286.021761" xlink:href="#m6fd4c9ff3a" y="218.602353"/>
     <use style="fill:#1f77b4;stroke:#000000;" x="137.679517" xlink:href="#m6fd4c9ff3a" y="227.60929"/>
     <use style="fill:#1f77b4;stroke:#000000;" x="266.290741" xlink:href="#m6fd4c9ff3a" y="210.924309"/>
     <use style="fill:#1f77b4;stroke:#000000;" x="338.51159" xlink:href="#m6fd4c9ff3a" y="184.641772"/>
     <use style="fill:#1f77b4;stroke:#000000;" x="266.371385" xlink:href="#m6fd4c9ff3a" y="222.884339"/>
     <use style="fill:#1f77b4;stroke:#000000;" x="270.308551" xlink:href="#m6fd4c9ff3a" y="217.347288"/>
     <use style="fill:#1f77b4;stroke:#000000;" x="284.034089" xlink:href="#m6fd4c9ff3a" y="218.602353"/>
     <use style="fill:#1f77b4;stroke:#000000;" x="180.45071" xlink:href="#m6fd4c9ff3a" y="222.146066"/>
     <use style="fill:#1f77b4;stroke:#000000;" x="315.425447" xlink:href="#m6fd4c9ff3a" y="222.884339"/>
     <use style="fill:#1f77b4;stroke:#000000;" x="107.556654" xlink:href="#m6fd4c9ff3a" y="204.981207"/>
     <use style="fill:#1f77b4;stroke:#000000;" x="244.246353" xlink:href="#m6fd4c9ff3a" y="218.602353"/>
     <use style="fill:#1f77b4;stroke:#000000;" x="182.326572" xlink:href="#m6fd4c9ff3a" y="181.614851"/>
     <use style="fill:#1f77b4;stroke:#000000;" x="213.648583" xlink:href="#m6fd4c9ff3a" y="236.763881"/>
     <use style="fill:#1f77b4;stroke:#000000;" x="212.426449" xlink:href="#m6fd4c9ff3a" y="176.151627"/>
     <use style="fill:#1f77b4;stroke:#000000;" x="331.628758" xlink:href="#m6fd4c9ff3a" y="205.645653"/>
     <use style="fill:#1f77b4;stroke:#000000;" x="312.66873" xlink:href="#m6fd4c9ff3a" y="197.37699"/>
     <use style="fill:#1f77b4;stroke:#000000;" x="239.29704" xlink:href="#m6fd4c9ff3a" y="205.867135"/>
     <use style="fill:#1f77b4;stroke:#000000;" x="158.032319" xlink:href="#m6fd4c9ff3a" y="227.092498"/>
     <use style="fill:#1f77b4;stroke:#000000;" x="198.519753" xlink:href="#m6fd4c9ff3a" y="216.609015"/>
     <use style="fill:#1f77b4;stroke:#000000;" x="188.511654" xlink:href="#m6fd4c9ff3a" y="234.216837"/>
     <use style="fill:#1f77b4;stroke:#000000;" x="320.059194" xlink:href="#m6fd4c9ff3a" y="180.950405"/>
     <use style="fill:#1f77b4;stroke:#000000;" x="245.733017" xlink:href="#m6fd4c9ff3a" y="206.863804"/>
     <use style="fill:#1f77b4;stroke:#000000;" x="328.978398" xlink:href="#m6fd4c9ff3a" y="217.199633"/>
     <use style="fill:#1f77b4;stroke:#000000;" x="106.997208" xlink:href="#m6fd4c9ff3a" y="184.641772"/>
     <use style="fill:#1f77b4;stroke:#000000;" x="249.750437" xlink:href="#m6fd4c9ff3a" y="213.323697"/>
     <use style="fill:#1f77b4;stroke:#000000;" x="332.99465" xlink:href="#m6fd4c9ff3a" y="231.63288"/>
     <use style="fill:#1f77b4;stroke:#000000;" x="148.120448" xlink:href="#m6fd4c9ff3a" y="223.29039"/>
     <use style="fill:#1f77b4;stroke:#000000;" x="300.981121" xlink:href="#m6fd4c9ff3a" y="234.955111"/>
     <use style="fill:#1f77b4;stroke:#000000;" x="111.44707" xlink:href="#m6fd4c9ff3a" y="214.209626"/>
     <use style="fill:#1f77b4;stroke:#000000;" x="315.399345" xlink:href="#m6fd4c9ff3a" y="236.763881"/>
     <use style="fill:#1f77b4;stroke:#000000;" x="216.700607" xlink:href="#m6fd4c9ff3a" y="218.602353"/>
     <use style="fill:#1f77b4;stroke:#000000;" x="294.033617" xlink:href="#m6fd4c9ff3a" y="185.158564"/>
     <use style="fill:#1f77b4;stroke:#000000;" x="317.216378" xlink:href="#m6fd4c9ff3a" y="167.661482"/>
     <use style="fill:#1f77b4;stroke:#000000;" x="217.681977" xlink:href="#m6fd4c9ff3a" y="205.867135"/>
     <use style="fill:#1f77b4;stroke:#000000;" x="296.60567" xlink:href="#m6fd4c9ff3a" y="230.968434"/>
     <use style="fill:#1f77b4;stroke:#000000;" x="308.324056" xlink:href="#m6fd4c9ff3a" y="207.602078"/>
     <use style="fill:#1f77b4;stroke:#000000;" x="152.327987" xlink:href="#m6fd4c9ff3a" y="221.48162"/>
     <use style="fill:#1f77b4;stroke:#000000;" x="326.545038" xlink:href="#m6fd4c9ff3a" y="231.411398"/>
     <use style="fill:#1f77b4;stroke:#000000;" x="343.391167" xlink:href="#m6fd4c9ff3a" y="201.658976"/>
     <use style="fill:#1f77b4;stroke:#000000;" x="81.184735" xlink:href="#m6fd4c9ff3a" y="229.012009"/>
     <use style="fill:#1f77b4;stroke:#000000;" x="269.027199" xlink:href="#m6fd4c9ff3a" y="229.344232"/>
     <use style="fill:#1f77b4;stroke:#000000;" x="250.713886" xlink:href="#m6fd4c9ff3a" y="215.464691"/>
     <use style="fill:#1f77b4;stroke:#000000;" x="152.398112" xlink:href="#m6fd4c9ff3a" y="235.434989"/>
     <use style="fill:#1f77b4;stroke:#000000;" x="213.535603" xlink:href="#m6fd4c9ff3a" y="227.092498"/>
     <use style="fill:#1f77b4;stroke:#000000;" x="178.002936" xlink:href="#m6fd4c9ff3a" y="197.37699"/>
     <use style="fill:#1f77b4;stroke:#000000;" x="205.521799" xlink:href="#m6fd4c9ff3a" y="229.897937"/>
     <use style="fill:#1f77b4;stroke:#000000;" x="99.699075" xlink:href="#m6fd4c9ff3a" y="227.092498"/>
     <use style="fill:#1f77b4;stroke:#000000;" x="225.662276" xlink:href="#m6fd4c9ff3a" y="159.134423"/>
     <use style="fill:#1f77b4;stroke:#000000;" x="210.077629" xlink:href="#m6fd4c9ff3a" y="207.048373"/>
     <use style="fill:#1f77b4;stroke:#000000;" x="229.297512" xlink:href="#m6fd4c9ff3a" y="226.022002"/>
     <use style="fill:#1f77b4;stroke:#000000;" x="252.971153" xlink:href="#m6fd4c9ff3a" y="211.071963"/>
     <use style="fill:#1f77b4;stroke:#000000;" x="75.859471" xlink:href="#m6fd4c9ff3a" y="217.273461"/>
     <use style="fill:#1f77b4;stroke:#000000;" x="106.252707" xlink:href="#m6fd4c9ff3a" y="226.834102"/>
     <use style="fill:#1f77b4;stroke:#000000;" x="264.596817" xlink:href="#m6fd4c9ff3a" y="240.713644"/>
     <use style="fill:#1f77b4;stroke:#000000;" x="211.51014" xlink:href="#m6fd4c9ff3a" y="218.602353"/>
     <use style="fill:#1f77b4;stroke:#000000;" x="217.8869" xlink:href="#m6fd4c9ff3a" y="184.641772"/>
     <use style="fill:#1f77b4;stroke:#000000;" x="249.680701" xlink:href="#m6fd4c9ff3a" y="222.884339"/>
     <use style="fill:#1f77b4;stroke:#000000;" x="143.718115" xlink:href="#m6fd4c9ff3a" y="222.884339"/>
     <use style="fill:#1f77b4;stroke:#000000;" x="268.548787" xlink:href="#m6fd4c9ff3a" y="227.092498"/>
     <use style="fill:#1f77b4;stroke:#000000;" x="233.808929" xlink:href="#m6fd4c9ff3a" y="222.072238"/>
     <use style="fill:#1f77b4;stroke:#000000;" x="258.970792" xlink:href="#m6fd4c9ff3a" y="227.60929"/>
     <use style="fill:#1f77b4;stroke:#000000;" x="222.781281" xlink:href="#m6fd4c9ff3a" y="210.592086"/>
     <use style="fill:#1f77b4;stroke:#000000;" x="95.668798" xlink:href="#m6fd4c9ff3a" y="214.726417"/>
     <use style="fill:#1f77b4;stroke:#000000;" x="184.153734" xlink:href="#m6fd4c9ff3a" y="193.168831"/>
     <use style="fill:#1f77b4;stroke:#000000;" x="172.451711" xlink:href="#m6fd4c9ff3a" y="207.196028"/>
     <use style="fill:#1f77b4;stroke:#000000;" x="140.658299" xlink:href="#m6fd4c9ff3a" y="193.168831"/>
     <use style="fill:#1f77b4;stroke:#000000;" x="176.494455" xlink:href="#m6fd4c9ff3a" y="222.884339"/>
     <use style="fill:#1f77b4;stroke:#000000;" x="261.374153" xlink:href="#m6fd4c9ff3a" y="218.602353"/>
     <use style="fill:#1f77b4;stroke:#000000;" x="343.006645" xlink:href="#m6fd4c9ff3a" y="86.968189"/>
     <use style="fill:#1f77b4;stroke:#000000;" x="198.171852" xlink:href="#m6fd4c9ff3a" y="222.884339"/>
     <use style="fill:#1f77b4;stroke:#000000;" x="320.140228" xlink:href="#m6fd4c9ff3a" y="205.867135"/>
     <use style="fill:#1f77b4;stroke:#000000;" x="210.251385" xlink:href="#m6fd4c9ff3a" y="184.641772"/>
     <use style="fill:#1f77b4;stroke:#000000;" x="187.611319" xlink:href="#m6fd4c9ff3a" y="193.722536"/>
     <use style="fill:#1f77b4;stroke:#000000;" x="340.397581" xlink:href="#m6fd4c9ff3a" y="222.219893"/>
     <use style="fill:#1f77b4;stroke:#000000;" x="131.835713" xlink:href="#m6fd4c9ff3a" y="183.423621"/>
     <use style="fill:#1f77b4;stroke:#000000;" x="173.708519" xlink:href="#m6fd4c9ff3a" y="228.495218"/>
     <use style="fill:#1f77b4;stroke:#000000;" x="310.181607" xlink:href="#m6fd4c9ff3a" y="199.997861"/>
     <use style="fill:#1f77b4;stroke:#000000;" x="148.517826" xlink:href="#m6fd4c9ff3a" y="175.339526"/>
     <use style="fill:#1f77b4;stroke:#000000;" x="235.595575" xlink:href="#m6fd4c9ff3a" y="231.411398"/>
     <use style="fill:#1f77b4;stroke:#000000;" x="190.464264" xlink:href="#m6fd4c9ff3a" y="180.359786"/>
     <use style="fill:#1f77b4;stroke:#000000;" x="192.000795" xlink:href="#m6fd4c9ff3a" y="240.381421"/>
     <use style="fill:#1f77b4;stroke:#000000;" x="145.377366" xlink:href="#m6fd4c9ff3a" y="227.092498"/>
     <use style="fill:#1f77b4;stroke:#000000;" x="281.398144" xlink:href="#m6fd4c9ff3a" y="207.1222"/>
     <use style="fill:#1f77b4;stroke:#000000;" x="186.324513" xlink:href="#m6fd4c9ff3a" y="184.641772"/>
     <use style="fill:#1f77b4;stroke:#000000;" x="203.801773" xlink:href="#m6fd4c9ff3a" y="205.867135"/>
     <use style="fill:#1f77b4;stroke:#000000;" x="227.017649" xlink:href="#m6fd4c9ff3a" y="214.394194"/>
     <use style="fill:#1f77b4;stroke:#000000;" x="150.396804" xlink:href="#m6fd4c9ff3a" y="167.661482"/>
     <use style="fill:#1f77b4;stroke:#000000;" x="174.429644" xlink:href="#m6fd4c9ff3a" y="210.075294"/>
     <use style="fill:#1f77b4;stroke:#000000;" x="84.966845" xlink:href="#m6fd4c9ff3a" y="237.169931"/>
     <use style="fill:#1f77b4;stroke:#000000;" x="167.677713" xlink:href="#m6fd4c9ff3a" y="218.602353"/>
     <use style="fill:#1f77b4;stroke:#000000;" x="270.665023" xlink:href="#m6fd4c9ff3a" y="177.628174"/>
     <use style="fill:#1f77b4;stroke:#000000;" x="110.019623" xlink:href="#m6fd4c9ff3a" y="213.54518"/>
     <use style="fill:#1f77b4;stroke:#000000;" x="332.474162" xlink:href="#m6fd4c9ff3a" y="193.168831"/>
     <use style="fill:#1f77b4;stroke:#000000;" x="224.397287" xlink:href="#m6fd4c9ff3a" y="137.90906"/>
     <use style="fill:#1f77b4;stroke:#000000;" x="321.451968" xlink:href="#m6fd4c9ff3a" y="236.431658"/>
     <use style="fill:#1f77b4;stroke:#000000;" x="179.365321" xlink:href="#m6fd4c9ff3a" y="209.004798"/>
     <use style="fill:#1f77b4;stroke:#000000;" x="196.169375" xlink:href="#m6fd4c9ff3a" y="221.998411"/>
     <use style="fill:#1f77b4;stroke:#000000;" x="90.929083" xlink:href="#m6fd4c9ff3a" y="218.602353"/>
     <use style="fill:#1f77b4;stroke:#000000;" x="285.33492" xlink:href="#m6fd4c9ff3a" y="217.347288"/>
     <use style="fill:#1f77b4;stroke:#000000;" x="214.321789" xlink:href="#m6fd4c9ff3a" y="171.869641"/>
     <use style="fill:#1f77b4;stroke:#000000;" x="248.634271" xlink:href="#m6fd4c9ff3a" y="227.092498"/>
     <use style="fill:#1f77b4;stroke:#000000;" x="305.394362" xlink:href="#m6fd4c9ff3a" y="193.168831"/>
     <use style="fill:#1f77b4;stroke:#000000;" x="177.846711" xlink:href="#m6fd4c9ff3a" y="173.678411"/>
     <use style="fill:#1f77b4;stroke:#000000;" x="283.969028" xlink:href="#m6fd4c9ff3a" y="227.092498"/>
     <use style="fill:#1f77b4;stroke:#000000;" x="322.422818" xlink:href="#m6fd4c9ff3a" y="154.926264"/>
     <use style="fill:#1f77b4;stroke:#000000;" x="142.095875" xlink:href="#m6fd4c9ff3a" y="220.891001"/>
     <use style="fill:#1f77b4;stroke:#000000;" x="257.347383" xlink:href="#m6fd4c9ff3a" y="201.658976"/>
     <use style="fill:#1f77b4;stroke:#000000;" x="88.071853" xlink:href="#m6fd4c9ff3a" y="184.641772"/>
     <use style="fill:#1f77b4;stroke:#000000;" x="252.61546" xlink:href="#m6fd4c9ff3a" y="231.411398"/>
     <use style="fill:#1f77b4;stroke:#000000;" x="139.757185" xlink:href="#m6fd4c9ff3a" y="209.595416"/>
     <use style="fill:#1f77b4;stroke:#000000;" x="136.714121" xlink:href="#m6fd4c9ff3a" y="239.56932"/>
     <use style="fill:#1f77b4;stroke:#000000;" x="104.345289" xlink:href="#m6fd4c9ff3a" y="227.941513"/>
     <use style="fill:#1f77b4;stroke:#000000;" x="237.635452" xlink:href="#m6fd4c9ff3a" y="143.040061"/>
     <use style="fill:#1f77b4;stroke:#000000;" x="99.010675" xlink:href="#m6fd4c9ff3a" y="229.41806"/>
     <use style="fill:#1f77b4;stroke:#000000;" x="120.342898" xlink:href="#m6fd4c9ff3a" y="159.134423"/>
     <use style="fill:#1f77b4;stroke:#000000;" x="271.264597" xlink:href="#m6fd4c9ff3a" y="219.820504"/>
     <use style="fill:#1f77b4;stroke:#000000;" x="256.666385" xlink:href="#m6fd4c9ff3a" y="188.849931"/>
     <use style="fill:#1f77b4;stroke:#000000;" x="214.828642" xlink:href="#m6fd4c9ff3a" y="220.337296"/>
     <use style="fill:#1f77b4;stroke:#000000;" x="69.218182" xlink:href="#m6fd4c9ff3a" y="222.072238"/>
     <use style="fill:#1f77b4;stroke:#000000;" x="231.570362" xlink:href="#m6fd4c9ff3a" y="231.411398"/>
     <use style="fill:#1f77b4;stroke:#000000;" x="237.958419" xlink:href="#m6fd4c9ff3a" y="213.54518"/>
     <use style="fill:#1f77b4;stroke:#000000;" x="206.909508" xlink:href="#m6fd4c9ff3a" y="180.359786"/>
     <use style="fill:#1f77b4;stroke:#000000;" x="143.286453" xlink:href="#m6fd4c9ff3a" y="213.803575"/>
     <use style="fill:#1f77b4;stroke:#000000;" x="148.783525" xlink:href="#m6fd4c9ff3a" y="202.323422"/>
     <use style="fill:#1f77b4;stroke:#000000;" x="308.765458" xlink:href="#m6fd4c9ff3a" y="239.716975"/>
     <use style="fill:#1f77b4;stroke:#000000;" x="215.534963" xlink:href="#m6fd4c9ff3a" y="192.504385"/>
     <use style="fill:#1f77b4;stroke:#000000;" x="314.342006" xlink:href="#m6fd4c9ff3a" y="238.314255"/>
     <use style="fill:#1f77b4;stroke:#000000;" x="345.598177" xlink:href="#m6fd4c9ff3a" y="116.683697"/>
     <use style="fill:#1f77b4;stroke:#000000;" x="130.601891" xlink:href="#m6fd4c9ff3a" y="205.867135"/>
     <use style="fill:#1f77b4;stroke:#000000;" x="264.035811" xlink:href="#m6fd4c9ff3a" y="227.092498"/>
     <use style="fill:#1f77b4;stroke:#000000;" x="141.848877" xlink:href="#m6fd4c9ff3a" y="202.840214"/>
     <use style="fill:#1f77b4;stroke:#000000;" x="186.227895" xlink:href="#m6fd4c9ff3a" y="220.0789"/>
     <use style="fill:#1f77b4;stroke:#000000;" x="261.646085" xlink:href="#m6fd4c9ff3a" y="215.796914"/>
     <use style="fill:#1f77b4;stroke:#000000;" x="312.993645" xlink:href="#m6fd4c9ff3a" y="239.237097"/>
     <use style="fill:#1f77b4;stroke:#000000;" x="262.703035" xlink:href="#m6fd4c9ff3a" y="229.971765"/>
     <use style="fill:#1f77b4;stroke:#000000;" x="90.504434" xlink:href="#m6fd4c9ff3a" y="214.615676"/>
     <use style="fill:#1f77b4;stroke:#000000;" x="250.46455" xlink:href="#m6fd4c9ff3a" y="222.884339"/>
     <use style="fill:#1f77b4;stroke:#000000;" x="180.599533" xlink:href="#m6fd4c9ff3a" y="210.075294"/>
     <use style="fill:#1f77b4;stroke:#000000;" x="201.463472" xlink:href="#m6fd4c9ff3a" y="218.602353"/>
     <use style="fill:#1f77b4;stroke:#000000;" x="188.97721" xlink:href="#m6fd4c9ff3a" y="195.97427"/>
     <use style="fill:#1f77b4;stroke:#000000;" x="327.213569" xlink:href="#m6fd4c9ff3a" y="206.125531"/>
     <use style="fill:#1f77b4;stroke:#000000;" x="286.111756" xlink:href="#m6fd4c9ff3a" y="222.884339"/>
     <use style="fill:#1f77b4;stroke:#000000;" x="208.064633" xlink:href="#m6fd4c9ff3a" y="239.901543"/>
     <use style="fill:#1f77b4;stroke:#000000;" x="145.860843" xlink:href="#m6fd4c9ff3a" y="201.658976"/>
     <use style="fill:#1f77b4;stroke:#000000;" x="160.849033" xlink:href="#m6fd4c9ff3a" y="231.411398"/>
     <use style="fill:#1f77b4;stroke:#000000;" x="248.775301" xlink:href="#m6fd4c9ff3a" y="233.367823"/>
     <use style="fill:#1f77b4;stroke:#000000;" x="154.710701" xlink:href="#m6fd4c9ff3a" y="189.957341"/>
     <use style="fill:#1f77b4;stroke:#000000;" x="184.557346" xlink:href="#m6fd4c9ff3a" y="231.411398"/>
     <use style="fill:#1f77b4;stroke:#000000;" x="309.889416" xlink:href="#m6fd4c9ff3a" y="201.658976"/>
     <use style="fill:#1f77b4;stroke:#000000;" x="290.752516" xlink:href="#m6fd4c9ff3a" y="221.88767"/>
     <use style="fill:#1f77b4;stroke:#000000;" x="158.781884" xlink:href="#m6fd4c9ff3a" y="222.884339"/>
     <use style="fill:#1f77b4;stroke:#000000;" x="305.992768" xlink:href="#m6fd4c9ff3a" y="226.61262"/>
     <use style="fill:#1f77b4;stroke:#000000;" x="310.372894" xlink:href="#m6fd4c9ff3a" y="202.249595"/>
     <use style="fill:#1f77b4;stroke:#000000;" x="225.616694" xlink:href="#m6fd4c9ff3a" y="193.168831"/>
     <use style="fill:#1f77b4;stroke:#000000;" x="134.237906" xlink:href="#m6fd4c9ff3a" y="224.028663"/>
     <use style="fill:#1f77b4;stroke:#000000;" x="299.163308" xlink:href="#m6fd4c9ff3a" y="129.898793"/>
     <use style="fill:#1f77b4;stroke:#000000;" x="89.824994" xlink:href="#m6fd4c9ff3a" y="205.793308"/>
     <use style="fill:#1f77b4;stroke:#000000;" x="334.625071" xlink:href="#m6fd4c9ff3a" y="176.151627"/>
     <use style="fill:#1f77b4;stroke:#000000;" x="202.82352" xlink:href="#m6fd4c9ff3a" y="228.753613"/>
     <use style="fill:#1f77b4;stroke:#000000;" x="210.716941" xlink:href="#m6fd4c9ff3a" y="219.599022"/>
     <use style="fill:#1f77b4;stroke:#000000;" x="238.705647" xlink:href="#m6fd4c9ff3a" y="227.277066"/>
     <use style="fill:#1f77b4;stroke:#000000;" x="73.52078" xlink:href="#m6fd4c9ff3a" y="233.958442"/>
     <use style="fill:#1f77b4;stroke:#000000;" x="304.422732" xlink:href="#m6fd4c9ff3a" y="224.877678"/>
     <use style="fill:#1f77b4;stroke:#000000;" x="328.757892" xlink:href="#m6fd4c9ff3a" y="204.464416"/>
     <use style="fill:#1f77b4;stroke:#000000;" x="262.087487" xlink:href="#m6fd4c9ff3a" y="216.202964"/>
     <use style="fill:#1f77b4;stroke:#000000;" x="180.502136" xlink:href="#m6fd4c9ff3a" y="210.075294"/>
     <use style="fill:#1f77b4;stroke:#000000;" x="284.458349" xlink:href="#m6fd4c9ff3a" y="180.359786"/>
     <use style="fill:#1f77b4;stroke:#000000;" x="298.70009" xlink:href="#m6fd4c9ff3a" y="222.884339"/>
     <use style="fill:#1f77b4;stroke:#000000;" x="259.534134" xlink:href="#m6fd4c9ff3a" y="193.168831"/>
     <use style="fill:#1f77b4;stroke:#000000;" x="114.3043" xlink:href="#m6fd4c9ff3a" y="229.344232"/>
     <use style="fill:#1f77b4;stroke:#000000;" x="349.225232" xlink:href="#m6fd4c9ff3a" y="229.491887"/>
     <use style="fill:#1f77b4;stroke:#000000;" x="338.836116" xlink:href="#m6fd4c9ff3a" y="226.944843"/>
     <use style="fill:#1f77b4;stroke:#000000;" x="182.245538" xlink:href="#m6fd4c9ff3a" y="214.468021"/>
     <use style="fill:#1f77b4;stroke:#000000;" x="257.675805" xlink:href="#m6fd4c9ff3a" y="222.884339"/>
     <use style="fill:#1f77b4;stroke:#000000;" x="166.332079" xlink:href="#m6fd4c9ff3a" y="155.849106"/>
     <use style="fill:#1f77b4;stroke:#000000;" x="250.937119" xlink:href="#m6fd4c9ff3a" y="239.975371"/>
     <use style="fill:#1f77b4;stroke:#000000;" x="267.343015" xlink:href="#m6fd4c9ff3a" y="236.763881"/>
     <use style="fill:#1f77b4;stroke:#000000;" x="310.994285" xlink:href="#m6fd4c9ff3a" y="217.937907"/>
     <use style="fill:#1f77b4;stroke:#000000;" x="229.97812" xlink:href="#m6fd4c9ff3a" y="197.37699"/>
     <use style="fill:#1f77b4;stroke:#000000;" x="127.517921" xlink:href="#m6fd4c9ff3a" y="221.555447"/>
     <use style="fill:#1f77b4;stroke:#000000;" x="305.461371" xlink:href="#m6fd4c9ff3a" y="219.340626"/>
     <use style="fill:#1f77b4;stroke:#000000;" x="182.902771" xlink:href="#m6fd4c9ff3a" y="224.951505"/>
     <use style="fill:#1f77b4;stroke:#000000;" x="99.111189" xlink:href="#m6fd4c9ff3a" y="218.602353"/>
     <use style="fill:#1f77b4;stroke:#000000;" x="264.774079" xlink:href="#m6fd4c9ff3a" y="218.27013"/>
     <use style="fill:#1f77b4;stroke:#000000;" x="210.69006" xlink:href="#m6fd4c9ff3a" y="231.411398"/>
     <use style="fill:#1f77b4;stroke:#000000;" x="172.318472" xlink:href="#m6fd4c9ff3a" y="232.03893"/>
     <use style="fill:#1f77b4;stroke:#000000;" x="92.552103" xlink:href="#m6fd4c9ff3a" y="235.619557"/>
     <use style="fill:#1f77b4;stroke:#000000;" x="149.821384" xlink:href="#m6fd4c9ff3a" y="231.153002"/>
     <use style="fill:#1f77b4;stroke:#000000;" x="235.530513" xlink:href="#m6fd4c9ff3a" y="205.867135"/>
     <use style="fill:#1f77b4;stroke:#000000;" x="80.215442" xlink:href="#m6fd4c9ff3a" y="232.961772"/>
     <use style="fill:#1f77b4;stroke:#000000;" x="258.386022" xlink:href="#m6fd4c9ff3a" y="197.37699"/>
     <use style="fill:#1f77b4;stroke:#000000;" x="140.696479" xlink:href="#m6fd4c9ff3a" y="193.168831"/>
     <use style="fill:#1f77b4;stroke:#000000;" x="152.49434" xlink:href="#m6fd4c9ff3a" y="227.092498"/>
     <use style="fill:#1f77b4;stroke:#000000;" x="276.416106" xlink:href="#m6fd4c9ff3a" y="233.0356"/>
     <use style="fill:#1f77b4;stroke:#000000;" x="112.875685" xlink:href="#m6fd4c9ff3a" y="223.216562"/>
     <use style="fill:#1f77b4;stroke:#000000;" x="244.869692" xlink:href="#m6fd4c9ff3a" y="201.658976"/>
     <use style="fill:#1f77b4;stroke:#000000;" x="287.038583" xlink:href="#m6fd4c9ff3a" y="196.232666"/>
     <use style="fill:#1f77b4;stroke:#000000;" x="120.862218" xlink:href="#m6fd4c9ff3a" y="221.998411"/>
     <use style="fill:#1f77b4;stroke:#000000;" x="103.460537" xlink:href="#m6fd4c9ff3a" y="227.092498"/>
     <use style="fill:#1f77b4;stroke:#000000;" x="87.824855" xlink:href="#m6fd4c9ff3a" y="209.853812"/>
     <use style="fill:#1f77b4;stroke:#000000;" x="256.243683" xlink:href="#m6fd4c9ff3a" y="222.219893"/>
     <use style="fill:#1f77b4;stroke:#000000;" x="285.657498" xlink:href="#m6fd4c9ff3a" y="231.300657"/>
     <use style="fill:#1f77b4;stroke:#000000;" x="137.000467" xlink:href="#m6fd4c9ff3a" y="227.092498"/>
     <use style="fill:#1f77b4;stroke:#000000;" x="138.133776" xlink:href="#m6fd4c9ff3a" y="223.69644"/>
     <use style="fill:#1f77b4;stroke:#000000;" x="221.7442" xlink:href="#m6fd4c9ff3a" y="215.390863"/>
     <use style="fill:#1f77b4;stroke:#000000;" x="139.821077" xlink:href="#m6fd4c9ff3a" y="205.867135"/>
     <use style="fill:#1f77b4;stroke:#000000;" x="278.547925" xlink:href="#m6fd4c9ff3a" y="210.075294"/>
     <use style="fill:#1f77b4;stroke:#000000;" x="127.809722" xlink:href="#m6fd4c9ff3a" y="167.661482"/>
     <use style="fill:#1f77b4;stroke:#000000;" x="151.120267" xlink:href="#m6fd4c9ff3a" y="200.182429"/>
     <use style="fill:#1f77b4;stroke:#000000;" x="182.461369" xlink:href="#m6fd4c9ff3a" y="181.171887"/>
     <use style="fill:#1f77b4;stroke:#000000;" x="302.983598" xlink:href="#m6fd4c9ff3a" y="227.092498"/>
     <use style="fill:#1f77b4;stroke:#000000;" x="184.632926" xlink:href="#m6fd4c9ff3a" y="219.340626"/>
     <use style="fill:#1f77b4;stroke:#000000;" x="107.181093" xlink:href="#m6fd4c9ff3a" y="201.658976"/>
     <use style="fill:#1f77b4;stroke:#000000;" x="192.935803" xlink:href="#m6fd4c9ff3a" y="218.27013"/>
     <use style="fill:#1f77b4;stroke:#000000;" x="102.879274" xlink:href="#m6fd4c9ff3a" y="235.619557"/>
     <use style="fill:#1f77b4;stroke:#000000;" x="333.978357" xlink:href="#m6fd4c9ff3a" y="173.013965"/>
     <use style="fill:#1f77b4;stroke:#000000;" x="304.425849" xlink:href="#m6fd4c9ff3a" y="226.20657"/>
     <use style="fill:#1f77b4;stroke:#000000;" x="243.7769" xlink:href="#m6fd4c9ff3a" y="193.168831"/>
     <use style="fill:#1f77b4;stroke:#000000;" x="271.301219" xlink:href="#m6fd4c9ff3a" y="214.468021"/>
     <use style="fill:#1f77b4;stroke:#000000;" x="116.300544" xlink:href="#m6fd4c9ff3a" y="190.289565"/>
     <use style="fill:#1f77b4;stroke:#000000;" x="311.005583" xlink:href="#m6fd4c9ff3a" y="142.117219"/>
     <use style="fill:#1f77b4;stroke:#000000;" x="222.693623" xlink:href="#m6fd4c9ff3a" y="214.394194"/>
     <use style="fill:#1f77b4;stroke:#000000;" x="240.497358" xlink:href="#m6fd4c9ff3a" y="227.092498"/>
     <use style="fill:#1f77b4;stroke:#000000;" x="96.286683" xlink:href="#m6fd4c9ff3a" y="218.602353"/>
     <use style="fill:#1f77b4;stroke:#000000;" x="218.535562" xlink:href="#m6fd4c9ff3a" y="154.926264"/>
     <use style="fill:#1f77b4;stroke:#000000;" x="268.422171" xlink:href="#m6fd4c9ff3a" y="205.128862"/>
     <use style="fill:#1f77b4;stroke:#000000;" x="70.930027" xlink:href="#m6fd4c9ff3a" y="224.545455"/>
     <use style="fill:#1f77b4;stroke:#000000;" x="211.536243" xlink:href="#m6fd4c9ff3a" y="229.344232"/>
     <use style="fill:#1f77b4;stroke:#000000;" x="211.506245" xlink:href="#m6fd4c9ff3a" y="236.837708"/>
     <use style="fill:#1f77b4;stroke:#000000;" x="83.072283" xlink:href="#m6fd4c9ff3a" y="242.116364"/>
     <use style="fill:#1f77b4;stroke:#000000;" x="151.19273" xlink:href="#m6fd4c9ff3a" y="209.743071"/>
     <use style="fill:#1f77b4;stroke:#000000;" x="266.69747" xlink:href="#m6fd4c9ff3a" y="237.502154"/>
     <use style="fill:#1f77b4;stroke:#000000;" x="314.486932" xlink:href="#m6fd4c9ff3a" y="192.504385"/>
     <use style="fill:#1f77b4;stroke:#000000;" x="81.003966" xlink:href="#m6fd4c9ff3a" y="167.882964"/>
     <use style="fill:#1f77b4;stroke:#000000;" x="139.823414" xlink:href="#m6fd4c9ff3a" y="201.658976"/>
     <use style="fill:#1f77b4;stroke:#000000;" x="137.095137" xlink:href="#m6fd4c9ff3a" y="218.417785"/>
     <use style="fill:#1f77b4;stroke:#000000;" x="163.846515" xlink:href="#m6fd4c9ff3a" y="223.474958"/>
     <use style="fill:#1f77b4;stroke:#000000;" x="189.32667" xlink:href="#m6fd4c9ff3a" y="229.971765"/>
     <use style="fill:#1f77b4;stroke:#000000;" x="227.249064" xlink:href="#m6fd4c9ff3a" y="218.602353"/>
     <use style="fill:#1f77b4;stroke:#000000;" x="150.255384" xlink:href="#m6fd4c9ff3a" y="227.092498"/>
     <use style="fill:#1f77b4;stroke:#000000;" x="169.041267" xlink:href="#m6fd4c9ff3a" y="223.068908"/>
     <use style="fill:#1f77b4;stroke:#000000;" x="159.232636" xlink:href="#m6fd4c9ff3a" y="200.440825"/>
     <use style="fill:#1f77b4;stroke:#000000;" x="288.935872" xlink:href="#m6fd4c9ff3a" y="206.789977"/>
     <use style="fill:#1f77b4;stroke:#000000;" x="231.542701" xlink:href="#m6fd4c9ff3a" y="232.555722"/>
     <use style="fill:#1f77b4;stroke:#000000;" x="262.672647" xlink:href="#m6fd4c9ff3a" y="227.092498"/>
     <use style="fill:#1f77b4;stroke:#000000;" x="286.32525" xlink:href="#m6fd4c9ff3a" y="214.615676"/>
     <use style="fill:#1f77b4;stroke:#000000;" x="296.826566" xlink:href="#m6fd4c9ff3a" y="232.223499"/>
     <use style="fill:#1f77b4;stroke:#000000;" x="157.204057" xlink:href="#m6fd4c9ff3a" y="193.242659"/>
     <use style="fill:#1f77b4;stroke:#000000;" x="207.439736" xlink:href="#m6fd4c9ff3a" y="233.773873"/>
     <use style="fill:#1f77b4;stroke:#000000;" x="126.984576" xlink:href="#m6fd4c9ff3a" y="167.661482"/>
     <use style="fill:#1f77b4;stroke:#000000;" x="156.769278" xlink:href="#m6fd4c9ff3a" y="199.370328"/>
     <use style="fill:#1f77b4;stroke:#000000;" x="226.351455" xlink:href="#m6fd4c9ff3a" y="227.092498"/>
     <use style="fill:#1f77b4;stroke:#000000;" x="87.44228" xlink:href="#m6fd4c9ff3a" y="219.599022"/>
     <use style="fill:#1f77b4;stroke:#000000;" x="166.443891" xlink:href="#m6fd4c9ff3a" y="210.33369"/>
     <use style="fill:#1f77b4;stroke:#000000;" x="82.319601" xlink:href="#m6fd4c9ff3a" y="210.075294"/>
     <use style="fill:#1f77b4;stroke:#000000;" x="317.118981" xlink:href="#m6fd4c9ff3a" y="205.867135"/>
     <use style="fill:#1f77b4;stroke:#000000;" x="199.753965" xlink:href="#m6fd4c9ff3a" y="213.54518"/>
    </g>
   </g>
   <g id="matplotlib.axis_1">
    <g id="xtick_1">
     <g id="line2d_1">
      <defs>
       <path d="M 0 0 
L 0 3.5 
" id="mfe497b6c9f" style="stroke:#000000;stroke-width:0.8;"/>
      </defs>
      <g>
       <use style="stroke:#000000;stroke-width:0.8;" x="68.85236" xlink:href="#mfe497b6c9f" y="252"/>
      </g>
     </g>
     <g id="text_1">
      <!-- 0 -->
      <g transform="translate(65.67111 266.598437)scale(0.1 -0.1)">
       <defs>
        <path d="M 31.78125 66.40625 
Q 24.171875 66.40625 20.328125 58.90625 
Q 16.5 51.421875 16.5 36.375 
Q 16.5 21.390625 20.328125 13.890625 
Q 24.171875 6.390625 31.78125 6.390625 
Q 39.453125 6.390625 43.28125 13.890625 
Q 47.125 21.390625 47.125 36.375 
Q 47.125 51.421875 43.28125 58.90625 
Q 39.453125 66.40625 31.78125 66.40625 
z
M 31.78125 74.21875 
Q 44.046875 74.21875 50.515625 64.515625 
Q 56.984375 54.828125 56.984375 36.375 
Q 56.984375 17.96875 50.515625 8.265625 
Q 44.046875 -1.421875 31.78125 -1.421875 
Q 19.53125 -1.421875 13.0625 8.265625 
Q 6.59375 17.96875 6.59375 36.375 
Q 6.59375 54.828125 13.0625 64.515625 
Q 19.53125 74.21875 31.78125 74.21875 
z
" id="DejaVuSans-48"/>
       </defs>
       <use xlink:href="#DejaVuSans-48"/>
      </g>
     </g>
    </g>
    <g id="xtick_2">
     <g id="line2d_2">
      <g>
       <use style="stroke:#000000;stroke-width:0.8;" x="107.811055" xlink:href="#mfe497b6c9f" y="252"/>
      </g>
     </g>
     <g id="text_2">
      <!-- 10 -->
      <g transform="translate(101.448555 266.598437)scale(0.1 -0.1)">
       <defs>
        <path d="M 12.40625 8.296875 
L 28.515625 8.296875 
L 28.515625 63.921875 
L 10.984375 60.40625 
L 10.984375 69.390625 
L 28.421875 72.90625 
L 38.28125 72.90625 
L 38.28125 8.296875 
L 54.390625 8.296875 
L 54.390625 0 
L 12.40625 0 
z
" id="DejaVuSans-49"/>
       </defs>
       <use xlink:href="#DejaVuSans-49"/>
       <use x="63.623047" xlink:href="#DejaVuSans-48"/>
      </g>
     </g>
    </g>
    <g id="xtick_3">
     <g id="line2d_3">
      <g>
       <use style="stroke:#000000;stroke-width:0.8;" x="146.76975" xlink:href="#mfe497b6c9f" y="252"/>
      </g>
     </g>
     <g id="text_3">
      <!-- 20 -->
      <g transform="translate(140.40725 266.598437)scale(0.1 -0.1)">
       <defs>
        <path d="M 19.1875 8.296875 
L 53.609375 8.296875 
L 53.609375 0 
L 7.328125 0 
L 7.328125 8.296875 
Q 12.9375 14.109375 22.625 23.890625 
Q 32.328125 33.6875 34.8125 36.53125 
Q 39.546875 41.84375 41.421875 45.53125 
Q 43.3125 49.21875 43.3125 52.78125 
Q 43.3125 58.59375 39.234375 62.25 
Q 35.15625 65.921875 28.609375 65.921875 
Q 23.96875 65.921875 18.8125 64.3125 
Q 13.671875 62.703125 7.8125 59.421875 
L 7.8125 69.390625 
Q 13.765625 71.78125 18.9375 73 
Q 24.125 74.21875 28.421875 74.21875 
Q 39.75 74.21875 46.484375 68.546875 
Q 53.21875 62.890625 53.21875 53.421875 
Q 53.21875 48.921875 51.53125 44.890625 
Q 49.859375 40.875 45.40625 35.40625 
Q 44.1875 33.984375 37.640625 27.21875 
Q 31.109375 20.453125 19.1875 8.296875 
z
" id="DejaVuSans-50"/>
       </defs>
       <use xlink:href="#DejaVuSans-50"/>
       <use x="63.623047" xlink:href="#DejaVuSans-48"/>
      </g>
     </g>
    </g>
    <g id="xtick_4">
     <g id="line2d_4">
      <g>
       <use style="stroke:#000000;stroke-width:0.8;" x="185.728445" xlink:href="#mfe497b6c9f" y="252"/>
      </g>
     </g>
     <g id="text_4">
      <!-- 30 -->
      <g transform="translate(179.365945 266.598437)scale(0.1 -0.1)">
       <defs>
        <path d="M 40.578125 39.3125 
Q 47.65625 37.796875 51.625 33 
Q 55.609375 28.21875 55.609375 21.1875 
Q 55.609375 10.40625 48.1875 4.484375 
Q 40.765625 -1.421875 27.09375 -1.421875 
Q 22.515625 -1.421875 17.65625 -0.515625 
Q 12.796875 0.390625 7.625 2.203125 
L 7.625 11.71875 
Q 11.71875 9.328125 16.59375 8.109375 
Q 21.484375 6.890625 26.8125 6.890625 
Q 36.078125 6.890625 40.9375 10.546875 
Q 45.796875 14.203125 45.796875 21.1875 
Q 45.796875 27.640625 41.28125 31.265625 
Q 36.765625 34.90625 28.71875 34.90625 
L 20.21875 34.90625 
L 20.21875 43.015625 
L 29.109375 43.015625 
Q 36.375 43.015625 40.234375 45.921875 
Q 44.09375 48.828125 44.09375 54.296875 
Q 44.09375 59.90625 40.109375 62.90625 
Q 36.140625 65.921875 28.71875 65.921875 
Q 24.65625 65.921875 20.015625 65.03125 
Q 15.375 64.15625 9.8125 62.3125 
L 9.8125 71.09375 
Q 15.4375 72.65625 20.34375 73.4375 
Q 25.25 74.21875 29.59375 74.21875 
Q 40.828125 74.21875 47.359375 69.109375 
Q 53.90625 64.015625 53.90625 55.328125 
Q 53.90625 49.265625 50.4375 45.09375 
Q 46.96875 40.921875 40.578125 39.3125 
z
" id="DejaVuSans-51"/>
       </defs>
       <use xlink:href="#DejaVuSans-51"/>
       <use x="63.623047" xlink:href="#DejaVuSans-48"/>
      </g>
     </g>
    </g>
    <g id="xtick_5">
     <g id="line2d_5">
      <g>
       <use style="stroke:#000000;stroke-width:0.8;" x="224.68714" xlink:href="#mfe497b6c9f" y="252"/>
      </g>
     </g>
     <g id="text_5">
      <!-- 40 -->
      <g transform="translate(218.32464 266.598437)scale(0.1 -0.1)">
       <defs>
        <path d="M 37.796875 64.3125 
L 12.890625 25.390625 
L 37.796875 25.390625 
z
M 35.203125 72.90625 
L 47.609375 72.90625 
L 47.609375 25.390625 
L 58.015625 25.390625 
L 58.015625 17.1875 
L 47.609375 17.1875 
L 47.609375 0 
L 37.796875 0 
L 37.796875 17.1875 
L 4.890625 17.1875 
L 4.890625 26.703125 
z
" id="DejaVuSans-52"/>
       </defs>
       <use xlink:href="#DejaVuSans-52"/>
       <use x="63.623047" xlink:href="#DejaVuSans-48"/>
      </g>
     </g>
    </g>
    <g id="xtick_6">
     <g id="line2d_6">
      <g>
       <use style="stroke:#000000;stroke-width:0.8;" x="263.645835" xlink:href="#mfe497b6c9f" y="252"/>
      </g>
     </g>
     <g id="text_6">
      <!-- 50 -->
      <g transform="translate(257.283335 266.598437)scale(0.1 -0.1)">
       <defs>
        <path d="M 10.796875 72.90625 
L 49.515625 72.90625 
L 49.515625 64.59375 
L 19.828125 64.59375 
L 19.828125 46.734375 
Q 21.96875 47.46875 24.109375 47.828125 
Q 26.265625 48.1875 28.421875 48.1875 
Q 40.625 48.1875 47.75 41.5 
Q 54.890625 34.8125 54.890625 23.390625 
Q 54.890625 11.625 47.5625 5.09375 
Q 40.234375 -1.421875 26.90625 -1.421875 
Q 22.3125 -1.421875 17.546875 -0.640625 
Q 12.796875 0.140625 7.71875 1.703125 
L 7.71875 11.625 
Q 12.109375 9.234375 16.796875 8.0625 
Q 21.484375 6.890625 26.703125 6.890625 
Q 35.15625 6.890625 40.078125 11.328125 
Q 45.015625 15.765625 45.015625 23.390625 
Q 45.015625 31 40.078125 35.4375 
Q 35.15625 39.890625 26.703125 39.890625 
Q 22.75 39.890625 18.8125 39.015625 
Q 14.890625 38.140625 10.796875 36.28125 
z
" id="DejaVuSans-53"/>
       </defs>
       <use xlink:href="#DejaVuSans-53"/>
       <use x="63.623047" xlink:href="#DejaVuSans-48"/>
      </g>
     </g>
    </g>
    <g id="xtick_7">
     <g id="line2d_7">
      <g>
       <use style="stroke:#000000;stroke-width:0.8;" x="302.60453" xlink:href="#mfe497b6c9f" y="252"/>
      </g>
     </g>
     <g id="text_7">
      <!-- 60 -->
      <g transform="translate(296.24203 266.598437)scale(0.1 -0.1)">
       <defs>
        <path d="M 33.015625 40.375 
Q 26.375 40.375 22.484375 35.828125 
Q 18.609375 31.296875 18.609375 23.390625 
Q 18.609375 15.53125 22.484375 10.953125 
Q 26.375 6.390625 33.015625 6.390625 
Q 39.65625 6.390625 43.53125 10.953125 
Q 47.40625 15.53125 47.40625 23.390625 
Q 47.40625 31.296875 43.53125 35.828125 
Q 39.65625 40.375 33.015625 40.375 
z
M 52.59375 71.296875 
L 52.59375 62.3125 
Q 48.875 64.0625 45.09375 64.984375 
Q 41.3125 65.921875 37.59375 65.921875 
Q 27.828125 65.921875 22.671875 59.328125 
Q 17.53125 52.734375 16.796875 39.40625 
Q 19.671875 43.65625 24.015625 45.921875 
Q 28.375 48.1875 33.59375 48.1875 
Q 44.578125 48.1875 50.953125 41.515625 
Q 57.328125 34.859375 57.328125 23.390625 
Q 57.328125 12.15625 50.6875 5.359375 
Q 44.046875 -1.421875 33.015625 -1.421875 
Q 20.359375 -1.421875 13.671875 8.265625 
Q 6.984375 17.96875 6.984375 36.375 
Q 6.984375 53.65625 15.1875 63.9375 
Q 23.390625 74.21875 37.203125 74.21875 
Q 40.921875 74.21875 44.703125 73.484375 
Q 48.484375 72.75 52.59375 71.296875 
z
" id="DejaVuSans-54"/>
       </defs>
       <use xlink:href="#DejaVuSans-54"/>
       <use x="63.623047" xlink:href="#DejaVuSans-48"/>
      </g>
     </g>
    </g>
    <g id="xtick_8">
     <g id="line2d_8">
      <g>
       <use style="stroke:#000000;stroke-width:0.8;" x="341.563225" xlink:href="#mfe497b6c9f" y="252"/>
      </g>
     </g>
     <g id="text_8">
      <!-- 70 -->
      <g transform="translate(335.200725 266.598437)scale(0.1 -0.1)">
       <defs>
        <path d="M 8.203125 72.90625 
L 55.078125 72.90625 
L 55.078125 68.703125 
L 28.609375 0 
L 18.3125 0 
L 43.21875 64.59375 
L 8.203125 64.59375 
z
" id="DejaVuSans-55"/>
       </defs>
       <use xlink:href="#DejaVuSans-55"/>
       <use x="63.623047" xlink:href="#DejaVuSans-48"/>
      </g>
     </g>
    </g>
    <g id="xtick_9">
     <g id="line2d_9">
      <g>
       <use style="stroke:#000000;stroke-width:0.8;" x="380.52192" xlink:href="#mfe497b6c9f" y="252"/>
      </g>
     </g>
     <g id="text_9">
      <!-- 80 -->
      <g transform="translate(374.15942 266.598437)scale(0.1 -0.1)">
       <defs>
        <path d="M 31.78125 34.625 
Q 24.75 34.625 20.71875 30.859375 
Q 16.703125 27.09375 16.703125 20.515625 
Q 16.703125 13.921875 20.71875 10.15625 
Q 24.75 6.390625 31.78125 6.390625 
Q 38.8125 6.390625 42.859375 10.171875 
Q 46.921875 13.96875 46.921875 20.515625 
Q 46.921875 27.09375 42.890625 30.859375 
Q 38.875 34.625 31.78125 34.625 
z
M 21.921875 38.8125 
Q 15.578125 40.375 12.03125 44.71875 
Q 8.5 49.078125 8.5 55.328125 
Q 8.5 64.0625 14.71875 69.140625 
Q 20.953125 74.21875 31.78125 74.21875 
Q 42.671875 74.21875 48.875 69.140625 
Q 55.078125 64.0625 55.078125 55.328125 
Q 55.078125 49.078125 51.53125 44.71875 
Q 48 40.375 41.703125 38.8125 
Q 48.828125 37.15625 52.796875 32.3125 
Q 56.78125 27.484375 56.78125 20.515625 
Q 56.78125 9.90625 50.3125 4.234375 
Q 43.84375 -1.421875 31.78125 -1.421875 
Q 19.734375 -1.421875 13.25 4.234375 
Q 6.78125 9.90625 6.78125 20.515625 
Q 6.78125 27.484375 10.78125 32.3125 
Q 14.796875 37.15625 21.921875 38.8125 
z
M 18.3125 54.390625 
Q 18.3125 48.734375 21.84375 45.5625 
Q 25.390625 42.390625 31.78125 42.390625 
Q 38.140625 42.390625 41.71875 45.5625 
Q 45.3125 48.734375 45.3125 54.390625 
Q 45.3125 60.0625 41.71875 63.234375 
Q 38.140625 66.40625 31.78125 66.40625 
Q 25.390625 66.40625 21.84375 63.234375 
Q 18.3125 60.0625 18.3125 54.390625 
z
" id="DejaVuSans-56"/>
       </defs>
       <use xlink:href="#DejaVuSans-56"/>
       <use x="63.623047" xlink:href="#DejaVuSans-48"/>
      </g>
     </g>
    </g>
    <g id="text_10">
     <!-- Latitude -->
     <g transform="translate(200.821094 280.276563)scale(0.1 -0.1)">
      <defs>
       <path d="M 9.8125 72.90625 
L 19.671875 72.90625 
L 19.671875 8.296875 
L 55.171875 8.296875 
L 55.171875 0 
L 9.8125 0 
z
" id="DejaVuSans-76"/>
       <path d="M 34.28125 27.484375 
Q 23.390625 27.484375 19.1875 25 
Q 14.984375 22.515625 14.984375 16.5 
Q 14.984375 11.71875 18.140625 8.90625 
Q 21.296875 6.109375 26.703125 6.109375 
Q 34.1875 6.109375 38.703125 11.40625 
Q 43.21875 16.703125 43.21875 25.484375 
L 43.21875 27.484375 
z
M 52.203125 31.203125 
L 52.203125 0 
L 43.21875 0 
L 43.21875 8.296875 
Q 40.140625 3.328125 35.546875 0.953125 
Q 30.953125 -1.421875 24.3125 -1.421875 
Q 15.921875 -1.421875 10.953125 3.296875 
Q 6 8.015625 6 15.921875 
Q 6 25.140625 12.171875 29.828125 
Q 18.359375 34.515625 30.609375 34.515625 
L 43.21875 34.515625 
L 43.21875 35.40625 
Q 43.21875 41.609375 39.140625 45 
Q 35.0625 48.390625 27.6875 48.390625 
Q 23 48.390625 18.546875 47.265625 
Q 14.109375 46.140625 10.015625 43.890625 
L 10.015625 52.203125 
Q 14.9375 54.109375 19.578125 55.046875 
Q 24.21875 56 28.609375 56 
Q 40.484375 56 46.34375 49.84375 
Q 52.203125 43.703125 52.203125 31.203125 
z
" id="DejaVuSans-97"/>
       <path d="M 18.3125 70.21875 
L 18.3125 54.6875 
L 36.8125 54.6875 
L 36.8125 47.703125 
L 18.3125 47.703125 
L 18.3125 18.015625 
Q 18.3125 11.328125 20.140625 9.421875 
Q 21.96875 7.515625 27.59375 7.515625 
L 36.8125 7.515625 
L 36.8125 0 
L 27.59375 0 
Q 17.1875 0 13.234375 3.875 
Q 9.28125 7.765625 9.28125 18.015625 
L 9.28125 47.703125 
L 2.6875 47.703125 
L 2.6875 54.6875 
L 9.28125 54.6875 
L 9.28125 70.21875 
z
" id="DejaVuSans-116"/>
       <path d="M 9.421875 54.6875 
L 18.40625 54.6875 
L 18.40625 0 
L 9.421875 0 
z
M 9.421875 75.984375 
L 18.40625 75.984375 
L 18.40625 64.59375 
L 9.421875 64.59375 
z
" id="DejaVuSans-105"/>
       <path d="M 8.5 21.578125 
L 8.5 54.6875 
L 17.484375 54.6875 
L 17.484375 21.921875 
Q 17.484375 14.15625 20.5 10.265625 
Q 23.53125 6.390625 29.59375 6.390625 
Q 36.859375 6.390625 41.078125 11.03125 
Q 45.3125 15.671875 45.3125 23.6875 
L 45.3125 54.6875 
L 54.296875 54.6875 
L 54.296875 0 
L 45.3125 0 
L 45.3125 8.40625 
Q 42.046875 3.421875 37.71875 1 
Q 33.40625 -1.421875 27.6875 -1.421875 
Q 18.265625 -1.421875 13.375 4.4375 
Q 8.5 10.296875 8.5 21.578125 
z
M 31.109375 56 
z
" id="DejaVuSans-117"/>
       <path d="M 45.40625 46.390625 
L 45.40625 75.984375 
L 54.390625 75.984375 
L 54.390625 0 
L 45.40625 0 
L 45.40625 8.203125 
Q 42.578125 3.328125 38.25 0.953125 
Q 33.9375 -1.421875 27.875 -1.421875 
Q 17.96875 -1.421875 11.734375 6.484375 
Q 5.515625 14.40625 5.515625 27.296875 
Q 5.515625 40.1875 11.734375 48.09375 
Q 17.96875 56 27.875 56 
Q 33.9375 56 38.25 53.625 
Q 42.578125 51.265625 45.40625 46.390625 
z
M 14.796875 27.296875 
Q 14.796875 17.390625 18.875 11.75 
Q 22.953125 6.109375 30.078125 6.109375 
Q 37.203125 6.109375 41.296875 11.75 
Q 45.40625 17.390625 45.40625 27.296875 
Q 45.40625 37.203125 41.296875 42.84375 
Q 37.203125 48.484375 30.078125 48.484375 
Q 22.953125 48.484375 18.875 42.84375 
Q 14.796875 37.203125 14.796875 27.296875 
z
" id="DejaVuSans-100"/>
       <path d="M 56.203125 29.59375 
L 56.203125 25.203125 
L 14.890625 25.203125 
Q 15.484375 15.921875 20.484375 11.0625 
Q 25.484375 6.203125 34.421875 6.203125 
Q 39.59375 6.203125 44.453125 7.46875 
Q 49.3125 8.734375 54.109375 11.28125 
L 54.109375 2.78125 
Q 49.265625 0.734375 44.1875 -0.34375 
Q 39.109375 -1.421875 33.890625 -1.421875 
Q 20.796875 -1.421875 13.15625 6.1875 
Q 5.515625 13.8125 5.515625 26.8125 
Q 5.515625 40.234375 12.765625 48.109375 
Q 20.015625 56 32.328125 56 
Q 43.359375 56 49.78125 48.890625 
Q 56.203125 41.796875 56.203125 29.59375 
z
M 47.21875 32.234375 
Q 47.125 39.59375 43.09375 43.984375 
Q 39.0625 48.390625 32.421875 48.390625 
Q 24.90625 48.390625 20.390625 44.140625 
Q 15.875 39.890625 15.1875 32.171875 
z
" id="DejaVuSans-101"/>
      </defs>
      <use xlink:href="#DejaVuSans-76"/>
      <use x="55.712891" xlink:href="#DejaVuSans-97"/>
      <use x="116.992188" xlink:href="#DejaVuSans-116"/>
      <use x="156.201172" xlink:href="#DejaVuSans-105"/>
      <use x="183.984375" xlink:href="#DejaVuSans-116"/>
      <use x="223.193359" xlink:href="#DejaVuSans-117"/>
      <use x="286.572266" xlink:href="#DejaVuSans-100"/>
      <use x="350.048828" xlink:href="#DejaVuSans-101"/>
     </g>
    </g>
   </g>
   <g id="matplotlib.axis_2">
    <g id="ytick_1">
     <g id="line2d_10">
      <defs>
       <path d="M 0 0 
L -3.5 0 
" id="mf46d0e7103" style="stroke:#000000;stroke-width:0.8;"/>
      </defs>
      <g>
       <use style="stroke:#000000;stroke-width:0.8;" x="54" xlink:href="#mf46d0e7103" y="244.109702"/>
      </g>
     </g>
     <g id="text_11">
      <!-- 0 -->
      <g transform="translate(40.6375 247.908921)scale(0.1 -0.1)">
       <use xlink:href="#DejaVuSans-48"/>
      </g>
     </g>
    </g>
    <g id="ytick_2">
     <g id="line2d_11">
      <g>
       <use style="stroke:#000000;stroke-width:0.8;" x="54" xlink:href="#mf46d0e7103" y="207.196028"/>
      </g>
     </g>
     <g id="text_12">
      <!-- 10 -->
      <g transform="translate(34.275 210.995246)scale(0.1 -0.1)">
       <use xlink:href="#DejaVuSans-49"/>
       <use x="63.623047" xlink:href="#DejaVuSans-48"/>
      </g>
     </g>
    </g>
    <g id="ytick_3">
     <g id="line2d_12">
      <g>
       <use style="stroke:#000000;stroke-width:0.8;" x="54" xlink:href="#mf46d0e7103" y="170.282353"/>
      </g>
     </g>
     <g id="text_13">
      <!-- 20 -->
      <g transform="translate(34.275 174.081572)scale(0.1 -0.1)">
       <use xlink:href="#DejaVuSans-50"/>
       <use x="63.623047" xlink:href="#DejaVuSans-48"/>
      </g>
     </g>
    </g>
    <g id="ytick_4">
     <g id="line2d_13">
      <g>
       <use style="stroke:#000000;stroke-width:0.8;" x="54" xlink:href="#mf46d0e7103" y="133.368678"/>
      </g>
     </g>
     <g id="text_14">
      <!-- 30 -->
      <g transform="translate(34.275 137.167897)scale(0.1 -0.1)">
       <use xlink:href="#DejaVuSans-51"/>
       <use x="63.623047" xlink:href="#DejaVuSans-48"/>
      </g>
     </g>
    </g>
    <g id="ytick_5">
     <g id="line2d_14">
      <g>
       <use style="stroke:#000000;stroke-width:0.8;" x="54" xlink:href="#mf46d0e7103" y="96.455004"/>
      </g>
     </g>
     <g id="text_15">
      <!-- 40 -->
      <g transform="translate(34.275 100.254223)scale(0.1 -0.1)">
       <use xlink:href="#DejaVuSans-52"/>
       <use x="63.623047" xlink:href="#DejaVuSans-48"/>
      </g>
     </g>
    </g>
    <g id="ytick_6">
     <g id="line2d_15">
      <g>
       <use style="stroke:#000000;stroke-width:0.8;" x="54" xlink:href="#mf46d0e7103" y="59.541329"/>
      </g>
     </g>
     <g id="text_16">
      <!-- 50 -->
      <g transform="translate(34.275 63.340548)scale(0.1 -0.1)">
       <use xlink:href="#DejaVuSans-53"/>
       <use x="63.623047" xlink:href="#DejaVuSans-48"/>
      </g>
     </g>
    </g>
    <g id="text_17">
     <!-- Wind Speed (mph) -->
     <g transform="translate(28.195312 189.812031)rotate(-90)scale(0.1 -0.1)">
      <defs>
       <path d="M 3.328125 72.90625 
L 13.28125 72.90625 
L 28.609375 11.28125 
L 43.890625 72.90625 
L 54.984375 72.90625 
L 70.3125 11.28125 
L 85.59375 72.90625 
L 95.609375 72.90625 
L 77.296875 0 
L 64.890625 0 
L 49.515625 63.28125 
L 33.984375 0 
L 21.578125 0 
z
" id="DejaVuSans-87"/>
       <path d="M 54.890625 33.015625 
L 54.890625 0 
L 45.90625 0 
L 45.90625 32.71875 
Q 45.90625 40.484375 42.875 44.328125 
Q 39.84375 48.1875 33.796875 48.1875 
Q 26.515625 48.1875 22.3125 43.546875 
Q 18.109375 38.921875 18.109375 30.90625 
L 18.109375 0 
L 9.078125 0 
L 9.078125 54.6875 
L 18.109375 54.6875 
L 18.109375 46.1875 
Q 21.34375 51.125 25.703125 53.5625 
Q 30.078125 56 35.796875 56 
Q 45.21875 56 50.046875 50.171875 
Q 54.890625 44.34375 54.890625 33.015625 
z
" id="DejaVuSans-110"/>
       <path id="DejaVuSans-32"/>
       <path d="M 53.515625 70.515625 
L 53.515625 60.890625 
Q 47.90625 63.578125 42.921875 64.890625 
Q 37.9375 66.21875 33.296875 66.21875 
Q 25.25 66.21875 20.875 63.09375 
Q 16.5 59.96875 16.5 54.203125 
Q 16.5 49.359375 19.40625 46.890625 
Q 22.3125 44.4375 30.421875 42.921875 
L 36.375 41.703125 
Q 47.40625 39.59375 52.65625 34.296875 
Q 57.90625 29 57.90625 20.125 
Q 57.90625 9.515625 50.796875 4.046875 
Q 43.703125 -1.421875 29.984375 -1.421875 
Q 24.8125 -1.421875 18.96875 -0.25 
Q 13.140625 0.921875 6.890625 3.21875 
L 6.890625 13.375 
Q 12.890625 10.015625 18.65625 8.296875 
Q 24.421875 6.59375 29.984375 6.59375 
Q 38.421875 6.59375 43.015625 9.90625 
Q 47.609375 13.234375 47.609375 19.390625 
Q 47.609375 24.75 44.3125 27.78125 
Q 41.015625 30.8125 33.5 32.328125 
L 27.484375 33.5 
Q 16.453125 35.6875 11.515625 40.375 
Q 6.59375 45.0625 6.59375 53.421875 
Q 6.59375 63.09375 13.40625 68.65625 
Q 20.21875 74.21875 32.171875 74.21875 
Q 37.3125 74.21875 42.625 73.28125 
Q 47.953125 72.359375 53.515625 70.515625 
z
" id="DejaVuSans-83"/>
       <path d="M 18.109375 8.203125 
L 18.109375 -20.796875 
L 9.078125 -20.796875 
L 9.078125 54.6875 
L 18.109375 54.6875 
L 18.109375 46.390625 
Q 20.953125 51.265625 25.265625 53.625 
Q 29.59375 56 35.59375 56 
Q 45.5625 56 51.78125 48.09375 
Q 58.015625 40.1875 58.015625 27.296875 
Q 58.015625 14.40625 51.78125 6.484375 
Q 45.5625 -1.421875 35.59375 -1.421875 
Q 29.59375 -1.421875 25.265625 0.953125 
Q 20.953125 3.328125 18.109375 8.203125 
z
M 48.6875 27.296875 
Q 48.6875 37.203125 44.609375 42.84375 
Q 40.53125 48.484375 33.40625 48.484375 
Q 26.265625 48.484375 22.1875 42.84375 
Q 18.109375 37.203125 18.109375 27.296875 
Q 18.109375 17.390625 22.1875 11.75 
Q 26.265625 6.109375 33.40625 6.109375 
Q 40.53125 6.109375 44.609375 11.75 
Q 48.6875 17.390625 48.6875 27.296875 
z
" id="DejaVuSans-112"/>
       <path d="M 31 75.875 
Q 24.46875 64.65625 21.28125 53.65625 
Q 18.109375 42.671875 18.109375 31.390625 
Q 18.109375 20.125 21.3125 9.0625 
Q 24.515625 -2 31 -13.1875 
L 23.1875 -13.1875 
Q 15.875 -1.703125 12.234375 9.375 
Q 8.59375 20.453125 8.59375 31.390625 
Q 8.59375 42.28125 12.203125 53.3125 
Q 15.828125 64.359375 23.1875 75.875 
z
" id="DejaVuSans-40"/>
       <path d="M 52 44.1875 
Q 55.375 50.25 60.0625 53.125 
Q 64.75 56 71.09375 56 
Q 79.640625 56 84.28125 50.015625 
Q 88.921875 44.046875 88.921875 33.015625 
L 88.921875 0 
L 79.890625 0 
L 79.890625 32.71875 
Q 79.890625 40.578125 77.09375 44.375 
Q 74.3125 48.1875 68.609375 48.1875 
Q 61.625 48.1875 57.5625 43.546875 
Q 53.515625 38.921875 53.515625 30.90625 
L 53.515625 0 
L 44.484375 0 
L 44.484375 32.71875 
Q 44.484375 40.625 41.703125 44.40625 
Q 38.921875 48.1875 33.109375 48.1875 
Q 26.21875 48.1875 22.15625 43.53125 
Q 18.109375 38.875 18.109375 30.90625 
L 18.109375 0 
L 9.078125 0 
L 9.078125 54.6875 
L 18.109375 54.6875 
L 18.109375 46.1875 
Q 21.1875 51.21875 25.484375 53.609375 
Q 29.78125 56 35.6875 56 
Q 41.65625 56 45.828125 52.96875 
Q 50 49.953125 52 44.1875 
z
" id="DejaVuSans-109"/>
       <path d="M 54.890625 33.015625 
L 54.890625 0 
L 45.90625 0 
L 45.90625 32.71875 
Q 45.90625 40.484375 42.875 44.328125 
Q 39.84375 48.1875 33.796875 48.1875 
Q 26.515625 48.1875 22.3125 43.546875 
Q 18.109375 38.921875 18.109375 30.90625 
L 18.109375 0 
L 9.078125 0 
L 9.078125 75.984375 
L 18.109375 75.984375 
L 18.109375 46.1875 
Q 21.34375 51.125 25.703125 53.5625 
Q 30.078125 56 35.796875 56 
Q 45.21875 56 50.046875 50.171875 
Q 54.890625 44.34375 54.890625 33.015625 
z
" id="DejaVuSans-104"/>
       <path d="M 8.015625 75.875 
L 15.828125 75.875 
Q 23.140625 64.359375 26.78125 53.3125 
Q 30.421875 42.28125 30.421875 31.390625 
Q 30.421875 20.453125 26.78125 9.375 
Q 23.140625 -1.703125 15.828125 -13.1875 
L 8.015625 -13.1875 
Q 14.5 -2 17.703125 9.0625 
Q 20.90625 20.125 20.90625 31.390625 
Q 20.90625 42.671875 17.703125 53.65625 
Q 14.5 64.65625 8.015625 75.875 
z
" id="DejaVuSans-41"/>
      </defs>
      <use xlink:href="#DejaVuSans-87"/>
      <use x="96.626953" xlink:href="#DejaVuSans-105"/>
      <use x="124.410156" xlink:href="#DejaVuSans-110"/>
      <use x="187.789062" xlink:href="#DejaVuSans-100"/>
      <use x="251.265625" xlink:href="#DejaVuSans-32"/>
      <use x="283.052734" xlink:href="#DejaVuSans-83"/>
      <use x="346.529297" xlink:href="#DejaVuSans-112"/>
      <use x="410.005859" xlink:href="#DejaVuSans-101"/>
      <use x="471.529297" xlink:href="#DejaVuSans-101"/>
      <use x="533.052734" xlink:href="#DejaVuSans-100"/>
      <use x="596.529297" xlink:href="#DejaVuSans-32"/>
      <use x="628.316406" xlink:href="#DejaVuSans-40"/>
      <use x="667.330078" xlink:href="#DejaVuSans-109"/>
      <use x="764.742188" xlink:href="#DejaVuSans-112"/>
      <use x="828.21875" xlink:href="#DejaVuSans-104"/>
      <use x="891.597656" xlink:href="#DejaVuSans-41"/>
     </g>
    </g>
   </g>
   <g id="line2d_16">
    <path clip-path="url(#p3ff78b2fb3)" d="M 89.933689 214.114705 
L 373.581818 203.685972 
L 69.218182 214.876341 
L 199.753965 210.077004 
" style="fill:none;stroke:#ff0000;stroke-linecap:square;stroke-width:1.5;"/>
   </g>
   <g id="patch_3">
    <path d="M 54 252 
L 54 34.56 
" style="fill:none;stroke:#000000;stroke-linecap:square;stroke-linejoin:miter;stroke-width:0.8;"/>
   </g>
   <g id="patch_4">
    <path d="M 388.8 252 
L 388.8 34.56 
" style="fill:none;stroke:#000000;stroke-linecap:square;stroke-linejoin:miter;stroke-width:0.8;"/>
   </g>
   <g id="patch_5">
    <path d="M 54 252 
L 388.8 252 
" style="fill:none;stroke:#000000;stroke-linecap:square;stroke-linejoin:miter;stroke-width:0.8;"/>
   </g>
   <g id="patch_6">
    <path d="M 54 34.56 
L 388.8 34.56 
" style="fill:none;stroke:#000000;stroke-linecap:square;stroke-linejoin:miter;stroke-width:0.8;"/>
   </g>
   <g id="text_18">
    <!-- y = 0.04x +7.92 -->
    <g style="fill:#ff0000;" transform="translate(107.811055 114.911841)scale(0.14 -0.14)">
     <defs>
      <path d="M 32.171875 -5.078125 
Q 28.375 -14.84375 24.75 -17.8125 
Q 21.140625 -20.796875 15.09375 -20.796875 
L 7.90625 -20.796875 
L 7.90625 -13.28125 
L 13.1875 -13.28125 
Q 16.890625 -13.28125 18.9375 -11.515625 
Q 21 -9.765625 23.484375 -3.21875 
L 25.09375 0.875 
L 2.984375 54.6875 
L 12.5 54.6875 
L 29.59375 11.921875 
L 46.6875 54.6875 
L 56.203125 54.6875 
z
" id="DejaVuSans-121"/>
      <path d="M 10.59375 45.40625 
L 73.1875 45.40625 
L 73.1875 37.203125 
L 10.59375 37.203125 
z
M 10.59375 25.484375 
L 73.1875 25.484375 
L 73.1875 17.1875 
L 10.59375 17.1875 
z
" id="DejaVuSans-61"/>
      <path d="M 10.6875 12.40625 
L 21 12.40625 
L 21 0 
L 10.6875 0 
z
" id="DejaVuSans-46"/>
      <path d="M 54.890625 54.6875 
L 35.109375 28.078125 
L 55.90625 0 
L 45.3125 0 
L 29.390625 21.484375 
L 13.484375 0 
L 2.875 0 
L 24.125 28.609375 
L 4.6875 54.6875 
L 15.28125 54.6875 
L 29.78125 35.203125 
L 44.28125 54.6875 
z
" id="DejaVuSans-120"/>
      <path d="M 46 62.703125 
L 46 35.5 
L 73.1875 35.5 
L 73.1875 27.203125 
L 46 27.203125 
L 46 0 
L 37.796875 0 
L 37.796875 27.203125 
L 10.59375 27.203125 
L 10.59375 35.5 
L 37.796875 35.5 
L 37.796875 62.703125 
z
" id="DejaVuSans-43"/>
      <path d="M 10.984375 1.515625 
L 10.984375 10.5 
Q 14.703125 8.734375 18.5 7.8125 
Q 22.3125 6.890625 25.984375 6.890625 
Q 35.75 6.890625 40.890625 13.453125 
Q 46.046875 20.015625 46.78125 33.40625 
Q 43.953125 29.203125 39.59375 26.953125 
Q 35.25 24.703125 29.984375 24.703125 
Q 19.046875 24.703125 12.671875 31.3125 
Q 6.296875 37.9375 6.296875 49.421875 
Q 6.296875 60.640625 12.9375 67.421875 
Q 19.578125 74.21875 30.609375 74.21875 
Q 43.265625 74.21875 49.921875 64.515625 
Q 56.59375 54.828125 56.59375 36.375 
Q 56.59375 19.140625 48.40625 8.859375 
Q 40.234375 -1.421875 26.421875 -1.421875 
Q 22.703125 -1.421875 18.890625 -0.6875 
Q 15.09375 0.046875 10.984375 1.515625 
z
M 30.609375 32.421875 
Q 37.25 32.421875 41.125 36.953125 
Q 45.015625 41.5 45.015625 49.421875 
Q 45.015625 57.28125 41.125 61.84375 
Q 37.25 66.40625 30.609375 66.40625 
Q 23.96875 66.40625 20.09375 61.84375 
Q 16.21875 57.28125 16.21875 49.421875 
Q 16.21875 41.5 20.09375 36.953125 
Q 23.96875 32.421875 30.609375 32.421875 
z
" id="DejaVuSans-57"/>
     </defs>
     <use xlink:href="#DejaVuSans-121"/>
     <use x="59.179688" xlink:href="#DejaVuSans-32"/>
     <use x="90.966797" xlink:href="#DejaVuSans-61"/>
     <use x="174.755859" xlink:href="#DejaVuSans-32"/>
     <use x="206.542969" xlink:href="#DejaVuSans-48"/>
     <use x="270.166016" xlink:href="#DejaVuSans-46"/>
     <use x="301.953125" xlink:href="#DejaVuSans-48"/>
     <use x="365.576172" xlink:href="#DejaVuSans-52"/>
     <use x="429.199219" xlink:href="#DejaVuSans-120"/>
     <use x="488.378906" xlink:href="#DejaVuSans-32"/>
     <use x="520.166016" xlink:href="#DejaVuSans-43"/>
     <use x="603.955078" xlink:href="#DejaVuSans-55"/>
     <use x="667.578125" xlink:href="#DejaVuSans-46"/>
     <use x="699.365234" xlink:href="#DejaVuSans-57"/>
     <use x="762.988281" xlink:href="#DejaVuSans-50"/>
    </g>
   </g>
   <g id="text_19">
    <!-- Northern Hemisphere - Wind Speed (mph) vs. Latitude -->
    <g transform="translate(57.779063 28.56)scale(0.12 -0.12)">
     <defs>
      <path d="M 9.8125 72.90625 
L 23.09375 72.90625 
L 55.421875 11.921875 
L 55.421875 72.90625 
L 64.984375 72.90625 
L 64.984375 0 
L 51.703125 0 
L 19.390625 60.984375 
L 19.390625 0 
L 9.8125 0 
z
" id="DejaVuSans-78"/>
      <path d="M 30.609375 48.390625 
Q 23.390625 48.390625 19.1875 42.75 
Q 14.984375 37.109375 14.984375 27.296875 
Q 14.984375 17.484375 19.15625 11.84375 
Q 23.34375 6.203125 30.609375 6.203125 
Q 37.796875 6.203125 41.984375 11.859375 
Q 46.1875 17.53125 46.1875 27.296875 
Q 46.1875 37.015625 41.984375 42.703125 
Q 37.796875 48.390625 30.609375 48.390625 
z
M 30.609375 56 
Q 42.328125 56 49.015625 48.375 
Q 55.71875 40.765625 55.71875 27.296875 
Q 55.71875 13.875 49.015625 6.21875 
Q 42.328125 -1.421875 30.609375 -1.421875 
Q 18.84375 -1.421875 12.171875 6.21875 
Q 5.515625 13.875 5.515625 27.296875 
Q 5.515625 40.765625 12.171875 48.375 
Q 18.84375 56 30.609375 56 
z
" id="DejaVuSans-111"/>
      <path d="M 41.109375 46.296875 
Q 39.59375 47.171875 37.8125 47.578125 
Q 36.03125 48 33.890625 48 
Q 26.265625 48 22.1875 43.046875 
Q 18.109375 38.09375 18.109375 28.8125 
L 18.109375 0 
L 9.078125 0 
L 9.078125 54.6875 
L 18.109375 54.6875 
L 18.109375 46.1875 
Q 20.953125 51.171875 25.484375 53.578125 
Q 30.03125 56 36.53125 56 
Q 37.453125 56 38.578125 55.875 
Q 39.703125 55.765625 41.0625 55.515625 
z
" id="DejaVuSans-114"/>
      <path d="M 9.8125 72.90625 
L 19.671875 72.90625 
L 19.671875 43.015625 
L 55.515625 43.015625 
L 55.515625 72.90625 
L 65.375 72.90625 
L 65.375 0 
L 55.515625 0 
L 55.515625 34.71875 
L 19.671875 34.71875 
L 19.671875 0 
L 9.8125 0 
z
" id="DejaVuSans-72"/>
      <path d="M 44.28125 53.078125 
L 44.28125 44.578125 
Q 40.484375 46.53125 36.375 47.5 
Q 32.28125 48.484375 27.875 48.484375 
Q 21.1875 48.484375 17.84375 46.4375 
Q 14.5 44.390625 14.5 40.28125 
Q 14.5 37.15625 16.890625 35.375 
Q 19.28125 33.59375 26.515625 31.984375 
L 29.59375 31.296875 
Q 39.15625 29.25 43.1875 25.515625 
Q 47.21875 21.78125 47.21875 15.09375 
Q 47.21875 7.46875 41.1875 3.015625 
Q 35.15625 -1.421875 24.609375 -1.421875 
Q 20.21875 -1.421875 15.453125 -0.5625 
Q 10.6875 0.296875 5.421875 2 
L 5.421875 11.28125 
Q 10.40625 8.6875 15.234375 7.390625 
Q 20.0625 6.109375 24.8125 6.109375 
Q 31.15625 6.109375 34.5625 8.28125 
Q 37.984375 10.453125 37.984375 14.40625 
Q 37.984375 18.0625 35.515625 20.015625 
Q 33.0625 21.96875 24.703125 23.78125 
L 21.578125 24.515625 
Q 13.234375 26.265625 9.515625 29.90625 
Q 5.8125 33.546875 5.8125 39.890625 
Q 5.8125 47.609375 11.28125 51.796875 
Q 16.75 56 26.8125 56 
Q 31.78125 56 36.171875 55.265625 
Q 40.578125 54.546875 44.28125 53.078125 
z
" id="DejaVuSans-115"/>
      <path d="M 4.890625 31.390625 
L 31.203125 31.390625 
L 31.203125 23.390625 
L 4.890625 23.390625 
z
" id="DejaVuSans-45"/>
      <path d="M 2.984375 54.6875 
L 12.5 54.6875 
L 29.59375 8.796875 
L 46.6875 54.6875 
L 56.203125 54.6875 
L 35.6875 0 
L 23.484375 0 
z
" id="DejaVuSans-118"/>
     </defs>
     <use xlink:href="#DejaVuSans-78"/>
     <use x="74.804688" xlink:href="#DejaVuSans-111"/>
     <use x="135.986328" xlink:href="#DejaVuSans-114"/>
     <use x="177.099609" xlink:href="#DejaVuSans-116"/>
     <use x="216.308594" xlink:href="#DejaVuSans-104"/>
     <use x="279.6875" xlink:href="#DejaVuSans-101"/>
     <use x="341.210938" xlink:href="#DejaVuSans-114"/>
     <use x="380.574219" xlink:href="#DejaVuSans-110"/>
     <use x="443.953125" xlink:href="#DejaVuSans-32"/>
     <use x="475.740234" xlink:href="#DejaVuSans-72"/>
     <use x="550.935547" xlink:href="#DejaVuSans-101"/>
     <use x="612.458984" xlink:href="#DejaVuSans-109"/>
     <use x="709.871094" xlink:href="#DejaVuSans-105"/>
     <use x="737.654297" xlink:href="#DejaVuSans-115"/>
     <use x="789.753906" xlink:href="#DejaVuSans-112"/>
     <use x="853.230469" xlink:href="#DejaVuSans-104"/>
     <use x="916.609375" xlink:href="#DejaVuSans-101"/>
     <use x="978.132812" xlink:href="#DejaVuSans-114"/>
     <use x="1016.996094" xlink:href="#DejaVuSans-101"/>
     <use x="1078.519531" xlink:href="#DejaVuSans-32"/>
     <use x="1110.306641" xlink:href="#DejaVuSans-45"/>
     <use x="1146.390625" xlink:href="#DejaVuSans-32"/>
     <use x="1178.177734" xlink:href="#DejaVuSans-87"/>
     <use x="1274.804688" xlink:href="#DejaVuSans-105"/>
     <use x="1302.587891" xlink:href="#DejaVuSans-110"/>
     <use x="1365.966797" xlink:href="#DejaVuSans-100"/>
     <use x="1429.443359" xlink:href="#DejaVuSans-32"/>
     <use x="1461.230469" xlink:href="#DejaVuSans-83"/>
     <use x="1524.707031" xlink:href="#DejaVuSans-112"/>
     <use x="1588.183594" xlink:href="#DejaVuSans-101"/>
     <use x="1649.707031" xlink:href="#DejaVuSans-101"/>
     <use x="1711.230469" xlink:href="#DejaVuSans-100"/>
     <use x="1774.707031" xlink:href="#DejaVuSans-32"/>
     <use x="1806.494141" xlink:href="#DejaVuSans-40"/>
     <use x="1845.507812" xlink:href="#DejaVuSans-109"/>
     <use x="1942.919922" xlink:href="#DejaVuSans-112"/>
     <use x="2006.396484" xlink:href="#DejaVuSans-104"/>
     <use x="2069.775391" xlink:href="#DejaVuSans-41"/>
     <use x="2108.789062" xlink:href="#DejaVuSans-32"/>
     <use x="2140.576172" xlink:href="#DejaVuSans-118"/>
     <use x="2199.755859" xlink:href="#DejaVuSans-115"/>
     <use x="2251.855469" xlink:href="#DejaVuSans-46"/>
     <use x="2283.642578" xlink:href="#DejaVuSans-32"/>
     <use x="2315.429688" xlink:href="#DejaVuSans-76"/>
     <use x="2371.142578" xlink:href="#DejaVuSans-97"/>
     <use x="2432.421875" xlink:href="#DejaVuSans-116"/>
     <use x="2471.630859" xlink:href="#DejaVuSans-105"/>
     <use x="2499.414062" xlink:href="#DejaVuSans-116"/>
     <use x="2538.623047" xlink:href="#DejaVuSans-117"/>
     <use x="2602.001953" xlink:href="#DejaVuSans-100"/>
     <use x="2665.478516" xlink:href="#DejaVuSans-101"/>
    </g>
   </g>
  </g>
 </g>
 <defs>
  <clipPath id="p3ff78b2fb3">
   <rect height="217.44" width="334.8" x="54" y="34.56"/>
  </clipPath>
 </defs>
</svg>
